<?xml version="1.0" encoding="UTF-8"?>
<!DOCTYPE svg PUBLIC "-//W3C//DTD SVG 1.1//EN" "http://www.w3.org/Graphics/SVG/1.1/DTD/svg11.dtd">
<!-- Creator: CorelDRAW 2021.5 -->
<svg xmlns="http://www.w3.org/2000/svg" xml:space="preserve" width="51.4118mm" height="49.3721mm" version="1.1" style="shape-rendering:geometricPrecision; text-rendering:geometricPrecision; image-rendering:optimizeQuality; fill-rule:evenodd; clip-rule:evenodd"
viewBox="0 0 5129.86 4926.34"
 xmlns:xlink="http://www.w3.org/1999/xlink"
 xmlns:xodm="http://www.corel.com/coreldraw/odm/2003">
 <defs>
  <style type="text/css">
   <![CDATA[
    .str0 {stroke:#1D1819;stroke-width:140.8;stroke-miterlimit:22.9256}
    .fil0 {fill:none}
   ]]>
  </style>
 </defs>
 <g id="Layer_x0020_1">
  <metadata id="CorelCorpID_0Corel-Layer"/>
  <path class="fil0 str0" d="M1756.16 1562c-110.48,0 -1230.78,114.18 -1422.05,127.27 -159.67,10.93 -253.44,125.27 -263.7,248.81l0 45.51c5.64,67.3 36.37,133.93 95.04,184.96l535.96 467.7c29.69,29.54 49.08,39.51 77.95,68.21 29.7,29.54 49.09,39.51 77.95,68.21 29.7,29.55 49.09,39.51 77.95,68.22 29.77,29.59 49.51,39.51 78.06,68.1l77.89 68.28c50.03,46.82 102.87,96.98 158.27,134.06 -20.68,43.07 -331.31,1429.27 -331.31,1481.13 0,133.44 122.71,263.09 263.09,263.09 114.04,0 252.7,-103.79 364.77,-171.17l1018.92 -608.37 1177.21 703.43c118.35,71.46 253.22,128.21 384.68,0.97 125.94,-121.9 80.67,-240.98 49.78,-376.96l-83.77 -364.49c-14.14,-60.42 -26.21,-125.19 -42.91,-190.95l-124.62 -547.74c-10.27,-45.03 -30.96,-159.85 -44.92,-188.94l1078.76 -938.3c60.83,-50.37 93.68,-118.45 100.3,-187.66l0 -52.46c-11.52,-120.34 -102.37,-231.24 -263.81,-243.52 -159.51,-12.14 -314.05,-24.41 -475.2,-41.25 -150.23,-15.69 -320.6,-29.92 -470.83,-45.62l-475.91 -40.52c-3.79,-45.51 -469.49,-1112.46 -509.41,-1205.59 -28.49,-66.47 -52.02,-137.79 -93,-189.58 -100.25,-126.64 -304.99,-128.72 -408.38,-5.39 -58.69,70.03 -448.31,1012.82 -523.24,1191.74 -18.8,44.91 -80.25,169.59 -83.53,208.82z"/>
 </g>
</svg>
