<?xml version="1.0" encoding="UTF-8"?>
<!DOCTYPE svg PUBLIC "-//W3C//DTD SVG 1.1//EN" "http://www.w3.org/Graphics/SVG/1.1/DTD/svg11.dtd">
<!-- Creator: CorelDRAW 2021.5 -->
<svg xmlns="http://www.w3.org/2000/svg" xml:space="preserve" width="33.534mm" height="44.0832mm" version="1.1" style="shape-rendering:geometricPrecision; text-rendering:geometricPrecision; image-rendering:optimizeQuality; fill-rule:evenodd; clip-rule:evenodd"
viewBox="0 0 3350.06 4403.93"
 xmlns:xlink="http://www.w3.org/1999/xlink"
 xmlns:xodm="http://www.corel.com/coreldraw/odm/2003">
 <defs>
  <style type="text/css">
   <![CDATA[
    .fil0 {fill:#1D1819}
   ]]>
  </style>
 </defs>
 <g id="Layer_x0020_1">
  <metadata id="CorelCorpID_0Corel-Layer"/>
  <g id="_1827392998960">
   <path class="fil0" d="M1668.06 2910.7l-420.48 -609.41c-122.33,-194.51 -271.51,-466.85 -349.8,-702.39 -206.03,-619.88 190.1,-1190.22 788.49,-1181.94 593.48,8.22 972.47,575.6 760.81,1199.15 -131.25,386.66 -556.64,1080.53 -779.02,1294.6zm-6.11 653.75c322.86,-235.61 1020.07,-1342.31 1191.86,-1856.07 297.36,-889.35 -323,-1700.59 -1167.54,-1708.32 -495.17,-4.54 -836.85,261.75 -1018.52,509.03 -683.12,929.87 225.7,2098.99 826.03,2843.87 56.42,70 132.58,138.97 168.16,211.49z"/>
   <path class="fil0" d="M2562.54 3067.44c118.59,136.78 268.35,99.06 351.27,300.51 186.83,453.91 -827.16,618.93 -1227.7,620.46 -1289.53,4.92 -1584.75,-648.46 -913.4,-896.52l-107.77 -190.64c-242.09,49.2 -758.6,363.31 -650.18,789.26 197.77,777.02 2426.25,997.54 3139.12,266.99 83.96,-86.05 162.91,-149.82 189.53,-305.95 68.15,-399.58 -403.52,-688.1 -679.57,-749.78 -21.82,60.69 -53.46,116.06 -101.3,165.66z"/>
   <path class="fil0" d="M1264.86 1347.59c114.52,529.39 929.9,369.21 821.09,-174.74 -41.66,-208.22 -241.99,-371.06 -495.57,-323.66 -199.92,37.36 -380.75,243.08 -325.53,498.39z"/>
  </g>
 </g>
</svg>
