<?xml version="1.0" encoding="UTF-8" standalone="no"?>
<!-- Creator: CorelDRAW 2021.5 -->

<svg
   xml:space="preserve"
   width="50mm"
   height="50mm"
   version="1.1"
   style="shape-rendering:geometricPrecision; text-rendering:geometricPrecision; image-rendering:optimizeQuality; fill-rule:evenodd; clip-rule:evenodd"
   viewBox="0 0 4996.94 4996.94"
   id="svg15"
   sodipodi:docname="bathroom.svg"
   inkscape:version="1.1.1 (3bf5ae0d25, 2021-09-20)"
   xmlns:inkscape="http://www.inkscape.org/namespaces/inkscape"
   xmlns:sodipodi="http://sodipodi.sourceforge.net/DTD/sodipodi-0.dtd"
   xmlns="http://www.w3.org/2000/svg"
   xmlns:svg="http://www.w3.org/2000/svg"><sodipodi:namedview
   id="namedview17"
   pagecolor="#ffffff"
   bordercolor="#666666"
   borderopacity="1.0"
   inkscape:pageshadow="2"
   inkscape:pageopacity="0.0"
   inkscape:pagecheckerboard="0"
   inkscape:document-units="mm"
   showgrid="false"
   inkscape:zoom="1.3451675"
   inkscape:cx="64.675959"
   inkscape:cy="34.568185"
   inkscape:window-width="1680"
   inkscape:window-height="987"
   inkscape:window-x="-8"
   inkscape:window-y="-8"
   inkscape:window-maximized="1"
   inkscape:current-layer="Layer_x0020_1" />
 <defs
   id="defs4">
  <style
   type="text/css"
   id="style2">
   <![CDATA[
    .fil0 {fill:#1D1819}
   ]]>
  </style>
 <style
   type="text/css"
   id="style99">
   <![CDATA[
    .fil0 {fill:#1D1819}
   ]]>
  </style><style
   type="text/css"
   id="style815">
   <![CDATA[
    .fil0 {fill:#1D1819}
   ]]>
  </style>
  
  
 
   
   
   
   
   
   
   
   
  <style
   type="text/css"
   id="style965">
   <![CDATA[
    .fil0 {fill:black}
   ]]>
  </style></defs>
 <g
   id="Layer_x0020_1"
   inkscape:label="Layer 1">
  <metadata
   id="CorelCorpID_0Corel-Layer" />
  
 <path
   style="fill:#000000;stroke-width:8.83393"
   d="m 280.47359,4673.0592 c -15.56694,-15.567 -25.82228,-35.133 -25.82228,-49.2662 0,-14.1331 10.25534,-33.6992 25.82228,-49.2661 l 25.82228,-25.8223 h 389.69229 389.69244 l -2.5284,-84.4744 -2.5284,-84.4744 -64.6939,-25.9711 C 934.47109,4321.0834 882.31012,4285.628 817.66898,4219.0213 731.34226,4130.0694 712.07238,4079.2497 569.19188,3563.7214 499.16894,3311.071 437.57654,3088.2536 432.31985,3068.5716 c -7.76795,-29.0843 -15.85014,-38.5617 -43.16159,-50.6114 -42.42464,-18.7178 -86.28287,-61.3165 -110.65994,-107.4822 -14.10744,-26.7169 -18.90532,-51.4966 -18.90532,-97.6407 0,-73.308 19.28277,-116.8508 73.39752,-165.7403 61.99641,-56.01 87.98151,-59.5249 440.04909,-59.5249 h 312.00119 v -75.0884 -75.0884 h 490.2831 490.2832 v 75.0884 75.0884 H 3231.6858 4397.7647 V 1461.8413 336.11042 l -18.7898,-5.96366 c -15.554,-4.93663 -36.7077,11.90754 -122.835,97.81049 l -104.0452,103.77415 24.7848,40.72858 c 36.2221,59.52352 54.7606,120.34523 59.6234,195.61475 7.6829,118.92183 -30.3756,230.25286 -106.7473,312.26327 -30.7828,33.0556 -43.6959,40.8017 -68.0185,40.8017 -27.626,0 -52.9248,-22.8713 -316.9625,-286.5484 -269.4769,-269.10879 -286.9401,-288.46529 -286.9401,-318.0481 0,-90.53457 207.061,-193.30953 358.9204,-178.15045 63.7114,6.35992 147.8803,34.42347 193.2059,64.41856 l 34.8753,23.07931 116.8353,-114.55783 c 98.6289,-96.70651 123.319,-116.34717 158.4436,-126.04009 65.8309,-18.16654 132.3612,0.48826 179.4824,50.32606 51.0488,53.99191 48.3441,-14.14721 48.3441,1217.87204 0,932.7986 2.0672,1134.0813 11.6475,1134.0813 6.4061,0 32.4823,6.1872 57.9469,13.7495 53.9312,16.0158 108.7525,61.8064 136.1719,113.7399 26.4723,50.14 26.5059,145.3498 0.071,195.4165 -24.3771,46.1657 -68.2353,88.7644 -110.6599,107.4822 -27.3115,12.0497 -35.3937,21.5271 -43.1616,50.6114 -5.2568,19.682 -66.8491,242.4994 -136.872,495.1498 -142.8807,515.5283 -162.1505,566.348 -248.4772,655.2999 -64.6412,66.6067 -116.8022,102.0621 -198.2608,134.7634 l -64.694,25.9711 -2.5284,84.4744 -2.5283,84.4744 h 389.6923 389.6924 l 25.8222,25.8223 c 33.5071,33.507 33.5071,65.0252 0,98.5323 l -25.8242,25.8223 H 2516.1375 306.29587 Z m 1094.05381,-199.443 37.24,-75.0883 h -88.2749 -88.2749 v 75.0883 75.0884 h 51.0349 51.0349 z m 2148.6781,70.4754 c 0,-2.5373 -15.9453,-36.327 -35.4343,-75.0884 l -35.4342,-70.4753 H 2516.1375 1579.938 l -35.4343,70.4753 c -19.4889,38.7614 -35.4342,72.5511 -35.4342,75.0884 0,2.5371 453.1805,4.613 1007.068,4.613 553.8875,0 1007.068,-2.0759 1007.068,-4.613 z m 273.8519,-70.4754 v -75.0883 h -88.2749 -88.275 l 37.2401,75.0883 37.24,75.0884 h 51.0349 51.0349 z m 99.6502,-238.2642 c 117.6741,-24.9352 223.1676,-106.4784 271.5722,-209.9169 19.5636,-41.8064 282.4884,-956.6163 282.4884,-982.8786 0,-2.4497 -536.6612,-4.4539 -1192.5806,-4.4539 H 2065.6071 v 415.1947 415.1947 H 1575.3239 1085.0408 V 3453.2973 3038.1026 H 833.27375 c -138.47189,0 -251.767,2.0042 -251.767,4.4539 0,26.2623 262.9248,941.0722 282.4884,982.8786 47.5328,101.5754 153.80825,184.8363 267.43395,209.5196 84.5583,18.369 2678.708,18.7416 2765.2785,0.3975 z M 1915.4302,3643.2267 v -75.0884 h -340.1063 -340.1063 v 75.0884 75.0885 h 340.1063 340.1063 z m 0,-640.4598 v -415.1948 h -340.1063 -340.1063 v 415.1948 415.1947 h 340.1063 340.1063 z m -830.3894,-189.9296 v -75.0884 H 770.75674 456.47261 l -25.82217,25.8222 c -27.56132,27.5614 -32.11459,51.8645 -15.54545,82.9742 21.72567,40.7916 21.83197,40.8038 354.12282,41.0995 l 315.81299,0.2809 z m 3507.8358,63.7651 c 40.5262,-31.1152 44.1279,-77.6514 8.7479,-113.0313 l -25.8221,-25.8222 H 3320.7047 2065.6071 v 75.0884 75.0884 l 1256.6265,-0.2809 c 973.8865,-0.2182 1259.7804,-2.7023 1270.643,-11.0424 z M 4072.046,898.0829 c 7.2962,-17.29181 12.0467,-60.33066 11.9446,-108.21565 -0.1457,-68.47218 -3.3838,-85.63738 -23.3321,-123.69307 -28.9943,-55.31266 -109.0254,-131.85844 -164.2127,-157.06102 -55.1129,-25.16873 -166.6331,-27.12477 -218.2629,-3.82846 l -34.9522,15.77114 202.7248,202.86864 c 111.4987,111.57777 205.2564,202.86865 208.3506,202.86865 3.0941,0 11.0771,-12.91952 17.7399,-28.71023 z M 2785.5724,2427.1944 c -27.4713,-15.0256 -39.7557,-34.9329 -39.7196,-64.3675 0.035,-28.4041 26.9805,-81.176 51.0108,-99.9017 23.9623,-18.6728 71.0743,-13.4023 95.1174,10.6408 26.2638,26.2638 27.4724,56.0126 4.1338,101.76 -28.5162,55.8963 -68.7032,74.7528 -110.5424,51.8684 z m 980.5663,0 c -33.0736,-18.0898 -39.7528,-35.6963 -39.7528,-104.7888 0,-59.0755 2.5368,-69.8262 20.4458,-86.6508 28.2937,-26.5807 76.3497,-25.7349 102.2164,1.7989 26.738,28.4613 34.6685,103.7822 15.7056,149.1667 -18.5274,44.3425 -60.2413,61.4629 -98.615,40.474 z m -1997.49,-37.8061 c -28.9394,-12.5959 -46.2884,-47.2649 -40.781,-81.4941 1.6881,-10.4922 24.466,-39.3129 50.6174,-64.046 36.1693,-34.2073 54.113,-44.9691 74.9803,-44.9691 37.6621,0 70.7988,34.2123 70.7988,73.0969 0,36.3306 -50.6545,99.8108 -94.1449,117.9821 -34.0327,14.2198 -27.349,14.2818 -61.4706,-0.5698 z M 2900.012,2177.1958 c -27.9936,-27.9935 -27.922,-63.7657 0.2385,-119.3383 35.5747,-70.2032 83.9615,-90.062 130.4125,-53.5235 32.7989,25.7995 34.4339,54.8979 6.4138,114.1464 -38.2741,80.9306 -91.8844,103.896 -137.0651,58.7154 z m -938.8723,-16.4302 c -12.102,-12.8821 -19.2077,-31.7847 -19.2077,-51.0968 0,-25.2939 8.1548,-38.7048 46.656,-76.7276 38.5823,-38.103 52.0739,-46.0764 77.9655,-46.0764 41.9268,0 69.725,29.4508 69.725,73.87 0,27.7534 -6.9317,39.9102 -43.7489,76.7275 -37.3828,37.3827 -48.7282,43.749 -77.9657,43.749 -24.3441,0 -39.7584,-5.8991 -53.4242,-20.4457 z m 1804.1125,-36.3383 c -15.0635,-6.5575 -29.9707,-18.6528 -33.1272,-26.8786 -10.3282,-26.915 -5.7448,-140.8554 6.3042,-156.7147 36.2684,-47.7373 112.5059,-32.6553 128.6403,25.4488 19.9687,71.9125 5.5105,136.7265 -35.1955,157.7763 -30.0555,15.5423 -31.7433,15.5518 -66.6218,0.3684 z M 2172.2554,1945.9208 c -31.8301,-40.4654 -24.4952,-72.8083 28.347,-124.994 48.4547,-47.8529 81.9672,-58.233 120.8402,-37.4289 27.7795,14.8672 37.7806,59.3531 21.1988,94.2962 -38.1132,80.318 -131.443,117.6347 -170.386,68.1267 z m 875.6906,-29.9719 c -31.7493,-29.5788 -33.0307,-56.3559 -5.3183,-111.1283 32.6102,-64.4531 60.0311,-86.1312 100.7161,-79.6233 36.2338,5.7959 61.8403,33.1917 61.8403,66.1616 0,28.1664 -38.7283,105.5413 -63.5886,127.043 -24.1361,20.8752 -69.8961,19.6767 -93.6495,-2.453 z m 731.4435,-85.4997 c -7.2879,-2.6641 -22.1952,-12.9814 -33.1272,-22.9272 -17.1887,-15.6382 -19.8764,-26.9124 -19.8764,-83.3788 0,-75.666 6.9843,-92.9007 43.8321,-108.1636 74.9393,-31.0409 126.4856,55.0646 96.8515,161.785 -7.2399,26.0728 -16.2814,36.7104 -39.4197,46.3782 -16.5137,6.8999 -31.1465,12.2314 -32.5172,11.8478 -1.3707,-0.3834 -8.4551,-2.8771 -15.7431,-5.5414 z M 2387.644,1735.4994 c -34.7444,-34.7445 -29.1323,-68.2835 20.2628,-121.0906 23.0704,-24.6641 50.7484,-48.1905 61.507,-52.2809 28.9778,-11.0174 71.6305,7.3353 87.2514,37.5427 19.1618,37.0548 3.6041,77.5965 -46.8048,121.9681 -49.0993,43.219 -88.4009,47.6761 -122.2164,13.8607 z m 800.5134,-89.9322 c -25.0072,-31.7915 -23.0363,-58.1378 8.8201,-117.9066 37.2883,-69.9601 80.6505,-88.4095 125.2805,-53.3035 34.9521,27.4933 37.6165,56.9894 10.2087,113.0091 -32.465,66.3561 -49.4102,81.4771 -91.3057,81.4771 -26.9594,0 -38.7766,-5.1894 -53.0036,-23.2761 z m -581.9079,-118.3113 c -21.9302,-20.431 -32.2923,-52.6854 -24.6555,-76.7465 2.8678,-9.0358 25.0407,-35.9571 49.273,-59.8249 36.5136,-35.9646 49.5686,-43.3962 76.2335,-43.3962 24.1612,0 37.3903,6.0633 53.1148,24.3442 35.7165,41.5228 22.32,86.4559 -42.2559,141.7304 -43.1582,36.9419 -81.8102,41.7489 -111.7099,13.893 z m 1139.3442,-20.2011 c -16.2814,-17.3308 -19.2078,-30.7896 -19.2078,-88.3393 0,-55.8236 3.1011,-70.9947 17.4432,-85.3368 40.6203,-40.6203 98.7568,-29.1068 120.9246,23.9484 18.9629,45.3844 11.0324,120.7053 -15.7056,149.1667 -26.7601,28.4847 -76.9656,28.757 -103.4544,0.561 z M 3359.081,1400.0522 c -16.0294,-6.937 -31.9136,-23.1536 -38.6803,-39.4899 -10.5313,-25.4246 -9.1447,-32.4665 16.749,-85.064 41.1445,-83.5765 90.0569,-103.5757 139.8536,-57.1831 25.7116,23.9541 25.2514,60.3102 -1.4295,112.9239 -34.9743,68.968 -69.2922,89.2396 -116.4928,68.8131 z m -543.2694,-92.7205 c -40.034,-40.0341 -34.8979,-65.1021 25.7679,-125.768 60.6659,-60.6658 85.7339,-65.8018 125.768,-25.7679 37.9058,37.9059 33.1739,72.9045 -17.2184,127.3517 -50.8333,54.9241 -95.5299,62.9718 -134.3175,24.1842 z m 929.7821,-100.6306 c -16.3016,-17.3523 -19.2078,-30.7788 -19.2078,-88.7408 0,-60.7323 2.4012,-70.6963 21.6834,-89.9784 28.0818,-28.08196 66.9008,-28.22393 99.2906,-0.3634 23.0635,19.8385 24.7859,25.9275 24.7859,87.6276 0,58.018 -2.6774,69.1576 -21.4161,89.1042 -28.4475,30.2808 -77.8591,31.3858 -105.136,2.3508 z m -257.37,-83.8485 c -34.4853,-34.4854 -34.3006,-61.6384 0.8375,-123.0525 42.9405,-75.0521 105.4568,-90.83077 143.6775,-36.26312 19.6469,28.04991 17.7722,49.20172 -8.8858,100.25242 -29.9705,57.3942 -45.9738,73.3591 -80.4473,80.2538 -23.811,4.7622 -32.6061,1.3848 -55.1815,-21.1906 z m -442.0504,-13.1441 c -27.9747,-14.1499 -46.3583,-51.8613 -39.1948,-80.4029 8.8045,-35.07968 94.9716,-111.34634 125.8007,-111.34634 35.5719,0 72.4049,38.00194 72.4049,74.70291 0,45.19933 -81.7521,128.84283 -125.4448,128.34723 -6.3146,-0.071 -21.4193,-5.157 -33.566,-11.3009 z m 210.7428,-213.97897 c -24.9864,-13.57395 -41.12,-49.65683 -36.1141,-80.76954 1.688,-10.49232 24.4659,-39.31303 50.6174,-64.04606 36.1692,-34.20734 54.113,-44.96898 74.9803,-44.96898 37.662,0 70.7987,34.21217 70.7987,73.0967 0,36.33072 -50.6544,99.81081 -94.1448,117.9823 -35.1142,14.67158 -36.8088,14.63848 -66.1375,-1.29442 z"
   id="path1201" /></g>
</svg>
