<?xml version="1.0" encoding="UTF-8"?>
<!DOCTYPE svg PUBLIC "-//W3C//DTD SVG 1.1//EN" "http://www.w3.org/Graphics/SVG/1.1/DTD/svg11.dtd">
<!-- Creator: CorelDRAW 2021.5 -->
<svg xmlns="http://www.w3.org/2000/svg" xml:space="preserve" width="50mm" height="50mm" version="1.1" style="shape-rendering:geometricPrecision; text-rendering:geometricPrecision; image-rendering:optimizeQuality; fill-rule:evenodd; clip-rule:evenodd"
viewBox="0 0 4996.94 4996.94"
 xmlns:xlink="http://www.w3.org/1999/xlink"
 xmlns:xodm="http://www.corel.com/coreldraw/odm/2003">
 <defs>
  <style type="text/css">
   <![CDATA[
    .fil0 {fill:#00A2E9}
   ]]>
  </style>
 </defs>
 <g id="Layer_x0020_1">
  <metadata id="CorelCorpID_0Corel-Layer"/>
  <g id="_2883985214688">
   <path class="fil0" d="M3768.09 3518.26l0 45.88c0,163.85 -134.81,221.48 -270.56,249.52 -137.78,28.46 -319,36.03 -484.06,36.03l-1019.79 0c-162.37,0 -338.21,-8.15 -473.84,-36.06 -97.28,-20.02 -195.55,-51.69 -251.06,-131.35 -36.94,-53.02 -29.74,-119.35 -29.74,-184.42 0,-192.23 73.78,-399.94 176.97,-536.87 103.36,-137.16 235.5,-255.8 396.22,-322.73 112.01,-46.64 239.57,-83.7 395.6,-83.7l591.48 0c259.05,0 504.12,103.86 681.98,281.72 58.34,58.34 60.98,58.78 111.3,128.34 107.04,147.94 175.5,349.37 175.5,553.64z"/>
   <path class="fil0" d="M4828.67 2534.16c5.9,-30.5 -12.19,-232.21 -15.11,-275.52 -16.92,-250.93 -114.15,-559.18 -227.93,-786.75 -53.68,-107.34 -92.84,-173.23 -161.82,-276.7 -114.01,-171.02 -199.1,-256.28 -335.74,-393.38l-78.15 -69.72c-15.26,-11.85 -23.03,-20.65 -38.52,-32.88 -118,-93.21 -162.08,-126.49 -300.46,-209.43 -301.87,-180.93 -645.84,-284.54 -998.81,-311.62l-137.95 -9.92c-53,-2.86 -88.83,5.58 -137.68,5.15 -47.7,-0.42 -95.45,5.58 -138.17,9.71 -207.43,20.09 -502.51,92.44 -689.59,182.32 -336.32,161.6 -479.45,256.89 -766.95,543.47 -14.79,14.74 -20.71,20.15 -34.02,37.37l-68.58 79.29c-93.22,117.99 -126.49,162.09 -209.43,300.47 -36.93,61.61 -67.2,123.2 -100.62,190 -16.53,33.04 -29.02,65.34 -43.1,99.67 -13.93,33.96 -26.97,69.14 -41.61,106.25l-66.84 223.8c-34.75,138.89 -48.62,236.29 -59.47,379.03 -2.9,38.06 -3.62,104.04 -8.47,139.4 -6.26,45.57 10.13,220.89 13.72,274.12 5.93,87.84 24.46,174.33 39.67,250.98 57.53,289.9 187.32,568.33 350.09,812.48 115.11,172.65 199.06,255.46 335.74,393.4l78.16 69.7c15.25,11.84 23.02,20.64 38.51,32.88 185.09,146.22 272.78,201.13 490.48,310.06 116.48,58.27 300.33,119.18 429.72,151.55 219.96,55.03 299.71,51.06 517.3,69.08 52.09,4.31 218.44,-11.03 275.26,-14.86 87.83,-5.92 174.32,-24.45 250.98,-39.66 76.84,-15.26 160.82,-39.01 228.82,-61.81 37.41,-12.54 68.48,-23.63 104.91,-37.87 300.85,-117.57 571.08,-285.12 800.75,-514.77 110.97,-110.98 176.18,-183.1 269.37,-311.91 247.96,-342.73 393.55,-752.74 425.69,-1175.37 3.25,-42.63 3.21,-103.62 9.86,-138.01zm-4828.67 -140.63l0 227.02c7.54,169.71 32.13,337.4 74.7,496.68 57.9,216.66 119.97,360.47 210.88,543.77 47.95,96.69 107.59,191.5 170.38,278.31 55.59,76.84 228.46,297.34 313.22,364.95 17.71,14.13 24.17,19.9 40.26,36.23l81.56 71.41c135.29,120.45 289.79,220.4 451.79,302.84l98.51 49.36c138.77,70.23 291.37,121.45 442.46,159.21 179.54,44.87 364.68,69.3 550.36,73.64l121.12 0c189.4,-4.46 378.28,-29.72 561.24,-75.46 83.72,-20.93 152.62,-43.47 230.39,-70.45 207.4,-71.92 416.06,-182.48 592.45,-310.06 60.87,-44.02 113.63,-83.05 169.29,-131.55 27.99,-24.39 55.5,-45.17 81.45,-71.51l76.47 -71.4c76.56,-76.56 149.16,-158.02 213.99,-244.92l94.31 -130.04c92.37,-137.07 174.96,-287.69 236.39,-441.77 15.11,-37.92 28.03,-67.12 41.03,-106.83 25.66,-78.38 50.64,-148.08 71.06,-229.78 65.53,-262.16 73.64,-429.75 73.64,-701.39 0,-226.46 -45.62,-437.7 -108.91,-650.82 -22.66,-76.31 -51.05,-148.8 -79.73,-221.1 -13.52,-34.03 -29.83,-70.19 -45.93,-101.95 -8.98,-17.75 -14.43,-33.32 -23.68,-52.79 -75.51,-158.87 -212.62,-365.71 -329.32,-496.72 -9.06,-10.18 -8.93,-12.63 -17.98,-22.81l-53.49 -58.69c-16.56,-16.33 -21.21,-22.96 -35.93,-40.57 -45.44,-54.38 -104.25,-97.72 -155.32,-145.51 -8.48,-7.95 -11.84,-12.68 -20.87,-19.92 -9.12,-7.31 -10.16,-6.8 -19.87,-15.82 -119.52,-111.12 -261.44,-193.59 -401.15,-277 -100.3,-59.88 -253.7,-127.99 -361.8,-163.38 -22.69,-7.44 -34.13,-13.55 -56.3,-20.2l-174.28 -50.07c-265.69,-66.41 -425.22,-74.44 -700.59,-74.44 -206.03,0 -454.64,43.3 -650.69,109.05 -20.78,6.97 -40.69,11.67 -58.78,17.71 -20.21,6.73 -31.6,12.3 -52.15,19.23 -40.47,13.64 -73.2,27.94 -110.3,42.66 -34.03,13.5 -70.19,29.83 -101.95,45.91 -17.75,8.99 -33.33,14.44 -52.8,23.7 -163.18,77.55 -360.78,210.76 -496.78,329.25l-122.01 107.44c-66.83,55.87 -123.76,131.44 -181.28,196.04 -84.54,94.95 -156.48,199.26 -222.08,308.21 -86.26,143.3 -165.93,294.91 -218.28,454.78 -7.45,22.77 -13.29,34.25 -20.53,55.95 -71.7,215 -113.85,448.5 -124.17,683.59z"/>
   <path class="fil0" d="M3299 1728.53c0,214.33 -86.36,399.51 -225.62,539.22 -262.16,262.99 -674.12,298.35 -985.91,91.04l-79.69 -63.08c-12.24,-12.26 -15.86,-12.74 -27.99,-23l-85.95 -102.72c-29.11,-40.27 -48.83,-75.83 -71.89,-121.88 -119.25,-238.17 -84.21,-531.95 64.66,-742.79 372.11,-527.04 1227.26,-395.22 1390.04,251.79 10.79,42.92 22.35,121.96 22.35,171.41z"/>
  </g>
 </g>
</svg>
