<?xml version="1.0" encoding="UTF-8" standalone="no"?>
<!-- Creator: CorelDRAW 2021.5 -->

<svg
   xml:space="preserve"
   width="49.9999mm"
   height="49.9391mm"
   version="1.1"
   style="shape-rendering:geometricPrecision; text-rendering:geometricPrecision; image-rendering:optimizeQuality; fill-rule:evenodd; clip-rule:evenodd"
   viewBox="0 0 4988.67 4982.6"
   id="svg13"
   sodipodi:docname="arow right.svg"
   inkscape:version="1.1.1 (3bf5ae0d25, 2021-09-20)"
   xmlns:inkscape="http://www.inkscape.org/namespaces/inkscape"
   xmlns:sodipodi="http://sodipodi.sourceforge.net/DTD/sodipodi-0.dtd"
   xmlns="http://www.w3.org/2000/svg"
   xmlns:svg="http://www.w3.org/2000/svg"><sodipodi:namedview
   id="namedview15"
   pagecolor="#ffffff"
   bordercolor="#666666"
   borderopacity="1.0"
   inkscape:pageshadow="2"
   inkscape:pageopacity="0.0"
   inkscape:pagecheckerboard="0"
   inkscape:document-units="mm"
   showgrid="false"
   inkscape:zoom="3.8093482"
   inkscape:cx="94.504355"
   inkscape:cy="94.373099"
   inkscape:window-width="1680"
   inkscape:window-height="987"
   inkscape:window-x="-8"
   inkscape:window-y="-8"
   inkscape:window-maximized="1"
   inkscape:current-layer="Layer_x0020_1" />
 <defs
   id="defs4">
  <style
   type="text/css"
   id="style2">
   <![CDATA[
    .fil0 {fill:#00A2E9;fill-opacity:0.600000}
   ]]>
  </style>
 </defs>
 <g
   id="Layer_x0020_1"
   inkscape:label="Layer 1">
  <metadata
   id="CorelCorpID_0Corel-Layer" />
  <g
   id="_2518538371488"
   transform="rotate(180,2494.325,2491.2957)">
   <path
   class="fil0"
   d="m 2425.14,4474.66 c 472.64,0 694.35,-64.25 1074.87,-268.68 47.9,-25.74 97.7,-59 141.99,-91.67 47.46,-35.01 84.1,-64.82 131.79,-101.86 118.88,-92.33 251.51,-249.25 342.18,-370.49 68.71,-91.85 126.97,-195.59 178.62,-300.38 251.01,-509.17 251.01,-1196.88 0,-1706.07 C 4086.81,1214 3769.62,896.9 3348.27,689.19 c -509.17,-251 -1196.88,-251 -1706.07,0 -331.82,163.57 -684.72,462.12 -860.4,786.89 -31.22,57.71 -59.58,101.3 -85.6,159.76 -280.11,629.37 -248.59,1249.61 77.6,1849.78 306.67,564.26 997.65,989.03 1651.32,989.03 z M 2565.34,0.07 c 22.02,5.31 118.12,-2.06 151.28,0.6 353.68,28.33 758.35,164.22 1057.19,344.78 673.02,406.64 1147.19,1132 1209.31,1921.74 l 5.54,296.4 c -8.6,56.37 -1.48,131.63 -23.24,280.52 -14.49,99.14 -29.43,177.91 -51.57,263.87 -237.63,922.82 -975.94,1621.76 -1923.25,1826.99 -415.84,90.09 -954.89,50.54 -1355.01,-103.02 -82.66,-31.73 -142,-60.32 -222.07,-93.37 -41.78,-17.24 -62.88,-35.44 -98.2,-53.69 C 662.93,4347.79 204.85,3704.06 48.83,2983.9 31.33,2903.12 13.75,2790.39 7.35,2709.92 L -0.01,2411.71 C 31.54,2206.15 3.67,2152.48 76.64,1869.12 153.81,1569.41 298.39,1261.91 479.08,1021.48 877.79,490.95 1344.72,194.78 1999.96,42.19 2070.98,25.66 2200.69,3.63 2273.2,-0.01 l 292.15,0.07 z"
   id="path7" />
   <path
   class="fil0"
   d="m 3170.08,1661.84 -817.89,823.86 817.77,823.57 -344.72,350.45 c -56.7,-17.23 -542.49,-524.97 -595.79,-578.26 -87.76,-87.77 -550.94,-538.96 -587.07,-592.91 46.05,-68.77 218.61,-224.45 289.15,-294.99 l 730.18,-730.19 c 41.26,-41.25 105.43,-128.38 160.65,-143.12 l 347.71,341.58 z"
   id="path9" />
  </g>
 </g>
</svg>
