<?xml version="1.0" encoding="UTF-8"?>
<!DOCTYPE svg PUBLIC "-//W3C//DTD SVG 1.1//EN" "http://www.w3.org/Graphics/SVG/1.1/DTD/svg11.dtd">
<!-- Creator: CorelDRAW 2021.5 -->
<svg xmlns="http://www.w3.org/2000/svg" xml:space="preserve" width="49.9999mm" height="49.9391mm" version="1.1" style="shape-rendering:geometricPrecision; text-rendering:geometricPrecision; image-rendering:optimizeQuality; fill-rule:evenodd; clip-rule:evenodd"
viewBox="0 0 4988.67 4982.6"
 xmlns:xlink="http://www.w3.org/1999/xlink"
 xmlns:xodm="http://www.corel.com/coreldraw/odm/2003">
 <defs>
  <style type="text/css">
   <![CDATA[
    .fil0 {fill:#00A2E9;fill-opacity:0.600000}
   ]]>
  </style>
 </defs>
 <g id="Layer_x0020_1">
  <metadata id="CorelCorpID_0Corel-Layer"/>
  <g id="_2518538371488">
   <path class="fil0" d="M2425.14 4474.66c472.64,0 694.35,-64.25 1074.87,-268.68 47.9,-25.74 97.7,-59 141.99,-91.67 47.46,-35.01 84.1,-64.82 131.79,-101.86 118.88,-92.33 251.51,-249.25 342.18,-370.49 68.71,-91.85 126.97,-195.59 178.62,-300.38 251.01,-509.17 251.01,-1196.88 0,-1706.07 -207.78,-421.51 -524.97,-738.61 -946.32,-946.32 -509.17,-251 -1196.88,-251 -1706.07,0 -331.82,163.57 -684.72,462.12 -860.4,786.89 -31.22,57.71 -59.58,101.3 -85.6,159.76 -280.11,629.37 -248.59,1249.61 77.6,1849.78 306.67,564.26 997.65,989.03 1651.32,989.03zm140.2 -4474.59c22.02,5.31 118.12,-2.06 151.28,0.6 353.68,28.33 758.35,164.22 1057.19,344.78 673.02,406.64 1147.19,1132 1209.31,1921.74l5.54 296.4c-8.6,56.37 -1.48,131.63 -23.24,280.52 -14.49,99.14 -29.43,177.91 -51.57,263.87 -237.63,922.82 -975.94,1621.76 -1923.25,1826.99 -415.84,90.09 -954.89,50.54 -1355.01,-103.02 -82.66,-31.73 -142,-60.32 -222.07,-93.37 -41.78,-17.24 -62.88,-35.44 -98.2,-53.69 -652.39,-337.1 -1110.47,-980.83 -1266.49,-1700.99 -17.5,-80.78 -35.08,-193.51 -41.48,-273.98l-7.36 -298.21c31.55,-205.56 3.68,-259.23 76.65,-542.59 77.17,-299.71 221.75,-607.21 402.44,-847.64 398.71,-530.53 865.64,-826.7 1520.88,-979.29 71.02,-16.53 200.73,-38.56 273.24,-42.2l292.15 0.07z"/>
   <path class="fil0" d="M3170.08 1661.84l-817.89 823.86 817.77 823.57 -344.72 350.45c-56.7,-17.23 -542.49,-524.97 -595.79,-578.26 -87.76,-87.77 -550.94,-538.96 -587.07,-592.91 46.05,-68.77 218.61,-224.45 289.15,-294.99l730.18 -730.19c41.26,-41.25 105.43,-128.38 160.65,-143.12l347.71 341.58z"/>
  </g>
 </g>
</svg>
