<?xml version="1.0" encoding="UTF-8"?>
<!DOCTYPE svg PUBLIC "-//W3C//DTD SVG 1.1//EN" "http://www.w3.org/Graphics/SVG/1.1/DTD/svg11.dtd">
<!-- Creator: CorelDRAW 2021.5 -->
<svg xmlns="http://www.w3.org/2000/svg" xml:space="preserve" width="60mm" height="60mm" version="1.1" style="shape-rendering:geometricPrecision; text-rendering:geometricPrecision; image-rendering:optimizeQuality; fill-rule:evenodd; clip-rule:evenodd"
viewBox="0 0 6000 6000"
 xmlns:xlink="http://www.w3.org/1999/xlink"
 xmlns:xodm="http://www.corel.com/coreldraw/odm/2003">
 <defs>
  <style type="text/css">
   <![CDATA[
    .fil0 {fill:#00A2E9}
   ]]>
  </style>
 </defs>
 <g id="Layer_x0020_1">
  <metadata id="CorelCorpID_0Corel-Layer"/>
  <g id="_2481974883088">
   <path class="fil0" d="M840.99 3740.83l0 -1418.06c0,-107.83 99.53,-220.57 210.09,-220.57 116.65,0 215.09,34.03 254.21,155.42 18.77,58.24 8.99,971.36 8.26,1073.72 -1.31,178.19 30.25,157.5 199.7,157.41 117.78,-0.08 642.54,-14.38 713.51,11.26 78.19,28.25 158.33,103.27 158.33,209.31l0 1428.58c0,105.35 -104.7,210.05 -210.09,210.05 -121.95,0 -203.27,-25.99 -251.25,-158.37 -27.99,-77.23 -12.17,-950.33 -11.17,-1070.76 1.39,-167.2 -36.46,-157.81 -199.75,-157.42 -102.31,0.26 -663.66,8.65 -716.42,-8.34 -76.45,-24.65 -155.42,-116.05 -155.42,-212.23zm-157.55 -1386.55l0 1355.04c0,228.52 171.33,409.67 399.15,409.67l672.26 0 0 976.89c0,389.67 449.09,534.62 677.92,289.28 60.54,-64.89 109.87,-158.2 109.87,-278.77l0 -1386.55c0,-215.7 -181.02,-388.68 -430.66,-388.68l-640.75 0 0 -987.36c0,-236.21 -179.24,-399.15 -409.63,-399.15 -210.62,0 -378.16,193.75 -378.16,409.63z"/>
   <path class="fil0" d="M3866.18 5347.95l-52.51 0c-105.39,0 -210.09,-104.7 -210.09,-210.05l0 -1428.58c0,-101.35 74.1,-175.71 150.72,-206.4 74.85,-29.9 579.48,-14.21 700.13,-14.17 169.41,0 222.09,31.08 220.83,-146.81 -0.74,-103.57 -10.74,-1014.82 5.65,-1076.28 65.84,-246.47 466.77,-205.66 466.77,57.11l0 1418.06c0,96.18 -77.32,182.84 -147.77,209.4 -64.32,24.25 -590.69,11.26 -703.08,11.21 -161.45,-0.13 -222.3,-21.16 -220.87,146.77 0.96,109.65 12.87,1007.22 -8.25,1073.63 -26.3,82.75 -97.45,166.11 -201.53,166.11zm651.27 -3004.15l0 987.36 -640.76 0c-249.64,0 -430.66,172.98 -430.66,388.68l0 1386.55c0,236.17 179.24,399.15 409.63,399.15 210.57,0 378.16,-193.79 378.16,-409.66l0 -976.89 672.26 0c227.82,0 399.15,-181.15 399.15,-409.67l0 -1334.01c0,-179.14 -80.36,-319.01 -222.26,-386.98 -107.96,-51.76 -218.61,-56.98 -330.27,-7.99 -133.03,58.32 -235.25,199.48 -235.25,363.46z"/>
   <path class="fil0" d="M2217.03 1482.44l0 -819.29 1260.51 0 0 1008.39 -1397.07 0c71.93,-107.43 136.56,-121.39 136.56,-189.1zm1554.61 -357.12l0 819.33 -1260.51 0 0 -115.56 987.4 0c54.03,0 126.04,-11.91 126.04,-63.02l0 -829.81 283.63 0c-66.75,99.65 -136.56,123.26 -136.56,189.06zm-1953.76 619.76c0,53.11 56.89,84.01 115.56,84.01l430.66 0c0,152.2 -29.99,273.11 84.01,273.11l1397.07 0c117.74,0 84.01,-189.19 84.01,-304.62l-0.3 -578.04c-1.35,-111.35 19.64,-89.88 155.33,-243.82 24.91,-28.29 86.58,-70.71 86.58,-113 0,-54.2 -43.73,-84.05 -94.53,-84.05l-451.7 0c0,-162.46 27.51,-273.11 -73.53,-273.11l-1407.55 0c-63.85,0 -81.93,42.28 -84.4,104.65l0.69 778.05c1.26,104 -4.78,83.62 -60.71,138.86 -35.69,35.29 -67.98,64.19 -97.14,102.39 -22.69,29.69 -84.05,77.58 -84.05,115.57z"/>
   <path class="fil0" d="M1975.42 2606.4l2037.83 0 0 231.08 -2037.83 0 0 -231.08zm-157.54 -73.54l0 367.64c0,38.38 28.98,84.06 63.02,84.06l2226.88 0c34.03,0 63.02,-45.68 63.02,-84.06l0 -367.64c0,-50.8 -33.21,-84.01 -84.02,-84.01l-2184.85 0c-50.85,0 -84.05,33.21 -84.05,84.01z"/>
   <path class="fil0" d="M4475.42 1303.9c0,-335.96 387.54,-599.94 726.59,-327.44 173.28,139.25 220.91,524.97 -89.96,701.43 -81.8,46.41 -149.47,46.15 -237.48,46.15 -160.11,0 -302.23,-128.52 -357.21,-251.99 -14.91,-33.46 -41.94,-122.08 -41.94,-168.15zm-147.08 -42.03c0,201.45 46.38,325.53 175.77,454.52 351.34,350.13 990.22,110.18 990.22,-423.01 0,-231.69 -137.6,-422.27 -314.92,-514.89 -380.2,-198.62 -851.07,87.45 -851.07,483.38z"/>
   <path class="fil0" d="M1093.11 1734.56c-249.47,0 -441.18,-197.79 -441.18,-378.16 0,-147.6 3.74,-240.69 123.09,-360.08 329.21,-329.31 883.31,39.99 699.6,478.99 -57.94,138.56 -217.49,259.25 -381.51,259.25zm-598.77 -451.7c0,113.05 11.08,173.68 55.85,269.81 52.94,113.74 168.59,229.92 284.54,282.68 464.91,211.39 999.27,-243.6 771.88,-782.4 -19.25,-45.63 -80.97,-131.42 -116.56,-167.02 -44.2,-44.2 -107.83,-85.83 -169.2,-114.39 -292.06,-135.95 -621.89,-13.08 -767.1,276.63 -32.72,65.28 -59.41,141.95 -59.41,234.69z"/>
   <path class="fil0" d="M2416.6 978.24c0,67.15 29.34,94.57 105.05,94.57l651.27 0c151.77,0 124.3,-157.59 20.99,-157.59l-693.25 0c-38.42,0 -84.06,28.99 -84.06,63.02z"/>
   <path class="fil0" d="M2416.6 1335.41c0,49.02 24.51,73.53 73.54,73.53l714.29 0c104.61,0 86.57,-147.07 10.47,-147.07l-724.76 0c-49.03,0 -73.54,24.47 -73.54,73.54z"/>
  </g>
 </g>
</svg>
