<?xml version="1.0" encoding="UTF-8"?>
<!DOCTYPE svg PUBLIC "-//W3C//DTD SVG 1.1//EN" "http://www.w3.org/Graphics/SVG/1.1/DTD/svg11.dtd">
<!-- Creator: CorelDRAW 2021.5 -->
<svg xmlns="http://www.w3.org/2000/svg" xml:space="preserve" width="60mm" height="60mm" version="1.1" style="shape-rendering:geometricPrecision; text-rendering:geometricPrecision; image-rendering:optimizeQuality; fill-rule:evenodd; clip-rule:evenodd"
viewBox="0 0 6000 6000"
 xmlns:xlink="http://www.w3.org/1999/xlink"
 xmlns:xodm="http://www.corel.com/coreldraw/odm/2003">
 <defs>
  <style type="text/css">
   <![CDATA[
    .fil0 {fill:#00A2E9}
   ]]>
  </style>
 </defs>
 <g id="Layer_x0020_1">
  <metadata id="CorelCorpID_0Corel-Layer"/>
  <g id="_2481454729088">
   <path class="fil0" d="M4681.7 5067.18l-3356.57 0c-123.99,0 -229.09,-58.79 -229.09,-179.3l0 -1902.38c0,-108.04 98.61,-179.29 209.16,-179.29l3376.5 0c150.48,0 219.13,97.5 219.13,249.01l0 1762.95c0,151.5 -68.65,249.01 -219.13,249.01zm-2400.4 -3496.04c0,215.5 -75.14,407.39 -268.72,508.18 -168.11,87.5 -365.51,59.55 -587.85,59.55 -194.13,0 -390.21,-155.81 -449.74,-347.07 -35.94,-115.45 -18.38,-615.51 -18.38,-768.46 -145.74,0 -275.16,76.81 -340.23,157.79 -87.93,109.4 -117.94,197.15 -117.94,390.01l0 3436.28c0,185.59 28.27,272.53 109.32,378.71 59.57,78.07 192.55,169.09 328.91,169.09l4123.52 0c131.39,0 264.7,-86.62 324.64,-163.41 84.81,-108.58 113.6,-197.43 113.6,-384.39l0 -3436.28c0,-189.85 -27.75,-273.8 -113.61,-384.38 -65.9,-84.88 -196.5,-163.42 -344.56,-163.42 0,146.39 16.13,652.94 -16.07,760.82 -13.36,44.72 -17.27,47.44 -36.72,82.79 -26.46,48.09 -54.17,96.43 -95.17,133.92 -197.93,180.97 -444.63,138 -698.64,138 -121.27,0 -272.29,-77.64 -347.37,-170.56 -28.92,-35.77 -29.27,-28.13 -54.57,-74.9 -58.3,-107.77 -76.15,-170.93 -76.15,-322.27l0 -557.75 -1434.27 0 0 557.75z"/>
   <path class="fil0" d="M1275.33 634.89l0 986.05c0,237.17 242.98,199.21 438.24,199.21 129.51,0 229.09,-51.96 229.09,-179.27l0 -1015.95c0,-91.03 -78.3,-169.32 -169.33,-169.32l-328.68 0c-96.08,0 -169.32,84.18 -169.32,179.28z"/>
   <path class="fil0" d="M4044.25 624.93l0 1015.95c0,215 275.11,179.27 438.24,179.27 125.82,0 229.09,-56.93 229.09,-179.27l0 -1015.95c0,-88.37 -78.74,-169.32 -169.32,-169.32l-328.69 0c-91.02,0 -169.32,78.29 -169.32,169.32z"/>
   <path class="fil0" d="M3685.68 3304.22l0 348.6c0,87.14 52.31,139.44 139.45,139.44l368.53 0c112.86,0 139.44,-81.2 139.44,-179.27 0,-541 58.52,-458.17 -537.86,-458.17 -35.31,0 -67.12,22.49 -84.04,45.45 -19.55,26.53 -25.52,62.03 -25.52,103.95z"/>
   <path class="fil0" d="M3685.68 4300.24c0,104.64 -17.88,393.62 25.52,452.56 16.92,22.95 48.73,45.43 84.04,45.43l418.33 0c83.89,0 119.53,-76.2 119.53,-159.36 0,-99.42 15.22,-357.43 -24.92,-423.29 -17.37,-28.52 -54.24,-54.79 -94.61,-54.79l-408.37 0c-70.96,0 -119.52,64.74 -119.52,139.45z"/>
   <path class="fil0" d="M1663.77 3314.18c0,99.35 -16.68,368.83 29.12,429.05 21.22,27.9 61.27,49.03 110.32,49.03l368.53 0c87.14,0 139.45,-52.3 139.45,-139.44 0,-104.63 17.88,-393.63 -25.52,-452.55 -16.92,-22.96 -48.73,-45.45 -84.04,-45.45l-428.3 0c-75.82,0 -109.56,80.27 -109.56,159.36z"/>
   <path class="fil0" d="M1663.77 4340.08c0,97.45 -16.46,351.02 27.49,410.75 16.15,21.94 56.71,47.4 92.04,47.4l418.33 0c76.87,0 109.56,-72.08 109.56,-149.38l0 -348.61c0,-74.71 -48.56,-139.45 -119.52,-139.45l-408.37 0c-96.46,0 -119.53,96.97 -119.53,179.29z"/>
   <path class="fil0" d="M2679.71 3264.38l0 398.41c0,92.5 56.27,129.47 149.41,129.47l338.63 0c93.14,0 149.41,-36.97 149.41,-129.47 0,-127.86 22.01,-411.25 -27.88,-470.12 -9.94,-11.71 -44.3,-37.85 -61.77,-37.85l-458.15 0c-29.62,0 -89.65,50.35 -89.65,109.56z"/>
   <path class="fil0" d="M2679.71 4270.35l0 418.33c0,58.2 51.36,109.55 109.56,109.55l418.33 0c58.2,0 109.56,-51.35 109.56,-109.55l0 -418.33c0,-63.82 -61.46,-109.56 -129.48,-109.56l-378.5 0c-68.01,0 -129.47,45.74 -129.47,109.56z"/>
  </g>
 </g>
</svg>
