<?xml version="1.0" encoding="UTF-8"?>
<!DOCTYPE svg PUBLIC "-//W3C//DTD SVG 1.1//EN" "http://www.w3.org/Graphics/SVG/1.1/DTD/svg11.dtd">
<!-- Creator: CorelDRAW 2021.5 -->
<svg xmlns="http://www.w3.org/2000/svg" xml:space="preserve" width="49.9999mm" height="36.2834mm" version="1.1" style="shape-rendering:geometricPrecision; text-rendering:geometricPrecision; image-rendering:optimizeQuality; fill-rule:evenodd; clip-rule:evenodd"
viewBox="0 0 4988.67 3620.12"
 xmlns:xlink="http://www.w3.org/1999/xlink"
 xmlns:xodm="http://www.corel.com/coreldraw/odm/2003">
 <defs>
  <style type="text/css">
   <![CDATA[
    .fil0 {fill:#00A2E9}
   ]]>
  </style>
 </defs>
 <g id="Layer_x0020_1">
  <metadata id="CorelCorpID_0Corel-Layer"/>
  <g id="_2481253517712">
   <path class="fil0" d="M4090.11 2717c-0.35,104.35 -59.38,130.39 -115.97,185.41l-428.72 428.36c-79.81,78.99 -44.87,84.07 -199.11,82.8l-1727.83 0.39c-132.57,1.42 -121,-26.81 -187.77,-94.16 -97.73,-98.57 -195.3,-176.58 -287.21,-283.82 -46.27,-54 -90.52,-94.28 -141.47,-144.6 -58.53,-57.83 -103.29,-66.36 -102.33,-187.72l-0.49 -1713.74c-16.98,-135.13 -253.77,-92.01 -476.27,-93.6l3.98 -320.37 4139.71 1.48 -2.11 316.66c-95.32,6.07 -200.44,2.98 -296.58,2.02 -254.49,-2.56 -178.75,106.5 -178.65,677.25 0.06,381.11 2.11,762.72 0.8,1143.64zm-2619.9 -2515.35l2051.58 3.8 -2.44 169.53 -2052.33 -2.65 3.19 -170.67zm-208.05 170.54c-137.39,13.02 -653.78,4.07 -850.87,2.68 -96.91,-0.68 -171.2,-6.32 -188.31,85.61 -6.7,35.98 -6.5,514.85 0.23,550.5 23.79,126.16 256.48,83.72 471.87,85.67 14.03,111.26 3.63,901.99 4.15,1087.05 0.52,181.72 0.74,363.65 -0.1,545.46 -0.65,139 -15.28,129.97 63.09,207.54 110.41,109.29 635.72,647.75 671.68,665.63 38.69,19.24 2074.1,29.75 2131.42,-5.07l612.18 -608.15c122.25,-137.38 113.73,-60 113.27,-285.96 -0.45,-219.45 -11.28,-1501.24 5.37,-1606.49 220.76,-1.9 454.66,41.55 471.84,-96.71 5.89,-47.32 5.11,-516.87 -2.84,-549.44 -20.92,-85.67 -117.35,-76.01 -211.29,-75.6l-829.71 -1.36 -1.67 -373.55 -2457.19 0.67 -3.11 371.53z"/>
   <path class="fil0" d="M3315.69 2590.44c-24.62,-226.31 14.59,-404.85 133.89,-523.99 174.25,-174.02 244.59,-124.77 513.77,-152.27l0.09 -194.04c-307.2,-57.41 -581.33,94.09 -704.61,259.47 -173.02,232.1 -160.79,471.93 -145.7,815.49l618.36 -3.38c17.63,-138.38 -25.13,-333.59 28.05,-445.61l203.91 -5.17 -1.39 -200.44c-163.06,-2.37 -275.23,-10.43 -360.57,90.9 -90.84,107.85 -46.73,208.22 -69.08,362.55l-216.71 -3.5z"/>
   <path class="fil0" d="M1456.76 2592.48c-17.57,-126.07 70.68,-524.76 -431.74,-447.86l1.17 193.38 203.86 14.82c39.01,82.49 23.77,321.38 24.76,441.86l621.37 -3.82c16.24,-349.43 26.38,-580.6 -150.74,-817.16 -122.31,-163.34 -382.14,-295.27 -700.34,-255.16l0.07 192.75c129.65,17.75 349.32,-29.77 516.26,155.17 112.1,124.17 152.83,295.18 132.65,526.7l-217.32 -0.68z"/>
   <path class="fil0" d="M1026.76 1480.06c89.69,-50.88 148.73,-113.89 304.59,-98.01 155.18,15.81 181.09,90.72 261.7,136.46 204.96,-187.37 396.25,-188.68 597.35,-1 92.06,-45.3 121.75,-140.09 311.4,-137.62 185.55,2.42 215.92,106.21 298.93,136.72 81.03,-70.46 152.55,-137.66 298.54,-136.84 167.05,0.95 215.35,81.64 298.8,138.53 320.24,-258.17 412.66,-102.46 565.16,-40.12 4.18,-96.48 22.07,-115.09 -57.92,-152.23 -47.77,-22.17 -109.63,-42.09 -170.21,-46.14 -174.53,-11.61 -222.94,46.36 -337.02,99.34 -244.99,-111.26 -298.96,-166.21 -597.34,-0.4 -110.54,-36.49 -136.3,-102.06 -311.43,-100.05 -159.24,1.82 -191.67,55.72 -298.9,100.33 -251.98,-143.53 -348.55,-132.91 -597.35,0.95 -169.78,-80.07 -303.32,-177.8 -566.88,-21.76l0.6 121.83z"/>
   <polygon class="fil0" points="4417.5,1914.97 4786.51,1917.35 4780.95,2139.08 4417.09,2140.1 4419.74,2341.25 4988.67,2341.12 4986.44,1714.56 4418.42,1715.26 "/>
   <polygon class="fil0" points="207.6,1915.49 573.23,1915.31 570.69,1714.39 -0,1719.8 1.06,2340.43 572.17,2340.62 571.65,2139.76 202.86,2139.23 "/>
  </g>
 </g>
</svg>
