<?xml version="1.0" encoding="UTF-8"?>
<!DOCTYPE svg PUBLIC "-//W3C//DTD SVG 1.1//EN" "http://www.w3.org/Graphics/SVG/1.1/DTD/svg11.dtd">
<!-- Creator: CorelDRAW 2021.5 -->
<svg xmlns="http://www.w3.org/2000/svg" xml:space="preserve" width="50.0002mm" height="50.0002mm" version="1.1" style="shape-rendering:geometricPrecision; text-rendering:geometricPrecision; image-rendering:optimizeQuality; fill-rule:evenodd; clip-rule:evenodd"
viewBox="0 0 4988.71 4988.71"
 xmlns:xlink="http://www.w3.org/1999/xlink"
 xmlns:xodm="http://www.corel.com/coreldraw/odm/2003">
 <defs>
  <style type="text/css">
   <![CDATA[
    .fil0 {fill:#00A2E9}
   ]]>
  </style>
 </defs>
 <g id="Layer_x0020_1">
  <metadata id="CorelCorpID_0Corel-Layer"/>
  <g id="_2481253402480">
   <path class="fil0" d="M3780.51 4803.58c-49.59,-33.2 -113.89,-66.85 -166.14,-96.93 -58.91,-33.91 -115.47,-64.52 -174.37,-98.44 -54.35,-31.3 -112.3,-65.14 -166.65,-96.43 -127,-73.11 -205.54,-115.28 -308.97,-226.93 -18.77,-20.24 -45.71,-54.62 -60.86,-75.55l-94.18 -168.9c-42.73,-95.84 -71.39,-226.04 -71.39,-337.85l0 -1130.25c381.21,0 577.58,-39.75 871.49,-258.76 65.3,-48.67 108.29,-118.17 171.07,-160.22 39.73,26.61 46.96,62.34 122.54,121.05l192.25 139.03c258.37,143.98 410.59,158.9 727.77,158.9 0,223.83 15.53,1111.96 -20.16,1285.47 -104.2,506.48 -452.94,604.72 -845.14,840.49l-177.26 105.3zm1208.2 -1442.04l0 162.42c-1.84,351.19 -28.49,643.01 -328.64,931.49 -23.9,22.97 -42.85,35.37 -68.58,58.09 -51.32,45.3 -777.01,465 -820.71,475.17 -28.94,-19.38 -58.72,-34.72 -91.84,-54.32l-260.8 -148.42c-78.53,-47.21 -187.34,-129.66 -280.21,-129.02l-1783.55 0.48c-170.48,0 -162.7,19.84 -226.62,-46.21 -46.9,-48.46 -88.62,-88.78 -136.33,-136.49 -305.1,-305.1 -651.65,-662.29 -960.24,-959.24 -17.56,-16.9 -26.71,-34.12 -31.17,-55.22l0 -186.42 0 -3273.84 3858.46 0 0 1607.69 -165.64 0 0 -1442.05 -3527.17 0 0 3205.63 477.44 0 0 -643.07 1695.37 0 0 1451.79 -1042.56 0 0 311.79 1636.92 0c-20.86,-31.15 -47.71,-52.73 -75.6,-80.3 -203.75,-201.37 -284.91,-480.15 -284.91,-786.88 0,-405.98 0,-811.97 0,-1217.95 148.72,0 293.59,0.97 428.51,-9.95 272.96,-22.09 526.77,-192.96 686.44,-404.84 23.61,-31.31 74.2,-95.99 83.51,-130.85 21.56,14.45 139.73,189.96 196.99,251.21 134.48,143.85 385.03,262.45 592.17,284.75 130.1,14.01 283.88,9.68 428.78,9.68 0,318.29 0,636.58 0,954.87zm-4698.81 177.8l840.36 -2.41 0 837.95 -840.36 -835.54zm518.83 -645.5l1364.1 0 0 1120.52 -876.92 0 0 -643.08 -487.18 0 0 -477.44z"/>
   <path class="fil0" d="M652.82 487.19l2562.56 0 0 155.89 -2562.56 0 0 -155.89zm-165.63 321.53l2893.84 0 0 -487.18 -2893.84 0 0 487.18z"/>
   <polygon class="fil0" points="487.19,1286.15 3059.48,1286.15 3059.48,1120.51 487.19,1120.51 "/>
   <polygon class="fil0" points="487.19,1607.69 3059.48,1607.69 3059.48,1442.05 487.19,1442.05 "/>
   <polygon class="fil0" points="487.19,1929.22 3059.48,1929.22 3059.48,1763.59 487.19,1763.59 "/>
   <path class="fil0" d="M3383.43 3812.14l-194.74 -190.07c-24.65,-24.86 -43.2,-47.23 -70.74,-65.67l-119.26 114.58 370.18 375c40.07,-12.46 57.06,-42.36 82.79,-68.18 137.84,-138.2 1077.38,-1066.97 1108.34,-1113.2 -15.67,-23.4 -30.12,-34.9 -51.1,-56.08 -23.47,-23.68 -33.16,-42.37 -65.82,-51.1l-1059.65 1054.72z"/>
   <polygon class="fil0" points="487.19,2250.77 2016.93,2250.77 2016.93,2085.12 487.19,2085.12 "/>
   <polygon class="fil0" points="487.19,2572.31 2016.93,2572.31 2016.93,2406.66 487.19,2406.66 "/>
   <path class="fil0" d="M4501.53 3644.1c0,258.21 -90.33,407.17 -282.56,535.89 8.82,37.88 58.44,109.29 77.94,146.16 58.57,-39.22 92.54,-58.08 143.74,-109.59 49.29,-49.6 73.83,-79.02 113.66,-139.67 150.81,-229.61 112.85,-596.17 112.85,-871.25l-165.64 0 0 438.47z"/>
   <polygon class="fil0" points="964.62,3215.38 2016.93,3215.38 2016.93,3049.73 964.62,3049.73 "/>
   <polygon class="fil0" points="1451.8,3536.92 2016.93,3536.92 2016.93,3371.27 1451.8,3371.27 "/>
   <polygon class="fil0" points="1451.8,3858.45 2016.93,3858.45 2016.93,3692.81 1451.8,3692.81 "/>
   <polygon class="fil0" points="3215.38,1286.15 3381.02,1286.15 3381.02,1120.51 3215.38,1120.51 "/>
   <polygon class="fil0" points="3215.38,1607.69 3381.02,1607.69 3381.02,1442.05 3215.38,1442.05 "/>
   <polygon class="fil0" points="3215.38,1929.22 3381.02,1929.22 3381.02,1763.59 3215.38,1763.59 "/>
   <polygon class="fil0" points="2172.82,2250.77 2338.46,2250.77 2338.46,2085.12 2172.82,2085.12 "/>
   <polygon class="fil0" points="2172.82,2572.31 2338.46,2572.31 2338.46,2406.66 2172.82,2406.66 "/>
  </g>
 </g>
</svg>
