<?xml version="1.0" encoding="UTF-8"?>
<!DOCTYPE svg PUBLIC "-//W3C//DTD SVG 1.1//EN" "http://www.w3.org/Graphics/SVG/1.1/DTD/svg11.dtd">
<!-- Creator: CorelDRAW 2021.5 -->
<svg xmlns="http://www.w3.org/2000/svg" xml:space="preserve" width="60mm" height="60mm" version="1.1" style="shape-rendering:geometricPrecision; text-rendering:geometricPrecision; image-rendering:optimizeQuality; fill-rule:evenodd; clip-rule:evenodd"
viewBox="0 0 6000 6000"
 xmlns:xlink="http://www.w3.org/1999/xlink"
 xmlns:xodm="http://www.corel.com/coreldraw/odm/2003">
 <defs>
  <style type="text/css">
   <![CDATA[
    .fil0 {fill:#00A2E9}
   ]]>
  </style>
 </defs>
 <g id="Layer_x0020_1">
  <metadata id="CorelCorpID_0Corel-Layer"/>
  <g id="_2481964593328">
   <path class="fil0" d="M1802.92 2780.53l0 380.87 -1132.82 0c-22.51,0 -29.29,-6.8 -29.29,-29.3l0 -1923.83c0,-22.49 6.78,-29.3 29.29,-29.3l1132.82 0 0 1298.85c0,97.35 156.25,122.38 156.25,-19.54l0 -1474.6 410.16 0 0 2343.75c0,22.49 -6.81,29.29 -29.3,29.29l-351.57 0c-46.13,0 -29.32,-75.86 -29.29,-156.25l0.41 -381.27c1.23,-180.39 -156.66,-127.24 -156.66,-38.67zm-1308.6 1527.06l0 -31.74c7.09,-32.06 35.27,-59.76 78.12,-59.76l2255.88 0 0 -664.07c0,-224.59 -83.83,-398.22 -302.75,-449.21 0,240.56 28.12,410.16 -224.61,410.16 -225.03,0 -498.04,46.44 -498.04,-195.32l-1113.28 0c-104.36,0 -195.32,-64.55 -195.32,-166.01l0 -1982.42c0,-74.81 87.24,-146.49 166.03,-146.49l1142.57 0c0,-113.53 66.57,-195.3 175.79,-195.3l371.08 0c52.42,0 103.1,28.5 128.7,56.84 71.58,79.28 47.08,285.51 47.08,431.44 373.84,0 629.47,40.8 937.5,195.3 56.43,28.29 103.28,53.91 159.61,84.54 58.28,31.65 95.19,59.28 147.26,96.87 304.85,219.96 487.23,459.63 656.78,798.29 171.39,342.27 178.94,665.68 178.94,1051.55 0,97.38 -136.99,107.99 -146.85,10.12 -3.28,-32.56 0.26,-91.94 0.38,-127.34 0.21,-56.74 -3.62,-85.98 -8.36,-128.34 -4.65,-41.52 0.82,-83.88 -1.39,-125.57 -15.82,-302.15 -146.11,-625.51 -300.77,-871.12 -160.07,-254.2 -493.9,-550.01 -765.06,-660.69 -64.47,-26.31 -118.56,-52.24 -187.75,-75.94 -205.19,-70.32 -433.11,-101.2 -670.29,-101.2l0 1464.84c0,37.49 44.24,29.63 84.55,42.39 197.22,62.41 364.66,261.1 364.66,484.95l0 1142.59c0,109.99 -146.46,83.24 -146.46,19.54l0 -244.15 -2226.58 0c-66.47,0 -99.77,-30.63 -107.42,-64.75z"/>
   <path class="fil0" d="M2740.41 1930.92c0,91.12 37.41,82.93 118.33,106.29 58.87,17 99.12,30.6 153.76,51.32 191.78,72.73 407.64,222.59 545.92,372.06 116.38,125.82 213.96,279.61 282.81,439.84 250.78,583.58 3.7,1051.99 198.03,1051.99 107.72,0 78.12,-181.66 78.12,-322.28 0,-267.03 -23.62,-466.46 -91.55,-670.18 -123.49,-370.2 -357.86,-658.8 -675.91,-867.04 -100.12,-65.54 -402.53,-220.58 -550.92,-220.58 -23.5,0 -58.59,35.07 -58.59,58.58z"/>
   <path class="fil0" d="M4459.17 3835.22l0 781.27c0,70.76 146.49,85.96 146.49,-19.54l0 -224.61 781.25 0c66.49,0 99.76,-30.63 107.41,-64.75l0 -31.74c-7.06,-32.06 -35.27,-59.76 -78.12,-59.76l-810.54 0 0 -390.62c0,-67.22 -146.49,-103.31 -146.49,9.75z"/>
   <path class="fil0" d="M5025.58 3884.05c-165.11,0 -117.72,-195.3 -9.76,-195.3 119.28,0 131.52,195.3 9.76,195.3zm-263.67 -97.66c0,326.8 490.13,343.36 502.64,7.22 4.61,-123.93 -102.62,-251.35 -229.22,-251.35l-48.83 0c-115.48,0 -224.59,127.21 -224.59,244.13z"/>
   <path class="fil0" d="M2457.21 5026.65c-164.6,0 -118.28,-197.66 -11.07,-192.55 129.22,6.16 128.37,192.55 11.07,192.55zm-263.67 -97.66c0,73.04 31.99,134.7 70.48,173.65 168.98,171.01 418.78,49.99 433.16,-157.4 18.51,-266.54 -359.71,-366.87 -478.25,-117.82 -10.53,22.16 -25.39,74.63 -25.39,101.57z"/>
   <path class="fil0" d="M3765.81 4518.83c-110.12,0 -129.09,-195.33 9.75,-195.33 31.86,0 53.1,12.76 68.27,29.4 62.75,68.73 12.96,165.93 -78.02,165.93zm-244.16 -97.66c0,139.33 117,247.26 245.26,250.21 125.42,2.87 252.81,-104.23 252.81,-230.67 0,-84.37 -7.09,-144.19 -77.95,-205.26 -184.28,-158.95 -420.12,-13.31 -420.12,185.72z"/>
   <path class="fil0" d="M5162.29 2897.73c-157.25,0 -129.19,-195.32 -9.76,-195.32 119.28,0 131.53,195.32 9.76,195.32zm-263.67 -97.66c0,143.36 111.06,253.91 263.67,253.91 115.97,0 234.37,-109.93 234.37,-224.62 0,-84.15 4.13,-130.93 -75.25,-207.95 -147.34,-142.98 -422.79,-43.47 -422.79,178.66z"/>
   <path class="fil0" d="M2222.83 3864.52c0,-110.38 195.33,-152.99 195.33,9.78 0,127.18 -195.33,107.49 -195.33,-9.78zm-146.49 -19.52c0,115.23 49.99,208.06 143.16,247.47 199.53,84.39 354.91,-71.81 354.91,-227.95 0,-140.34 -111.3,-241.18 -236.77,-251.76 -128.44,-10.81 -261.3,110.83 -261.3,232.24z"/>
   <path class="fil0" d="M2740.41 2526.65c0,81.56 67.19,64 198.17,163.15 176.89,133.89 304,294.12 371.91,507 29.93,93.91 39.38,101.31 103.74,101.31 19.72,0 58.62,-26.6 58.62,-68.35 0,-127.49 -171.73,-412.31 -275.81,-515.24 -73.12,-72.29 -129.01,-123.82 -218.18,-182.2 -24.98,-16.35 -38.63,-21.9 -62.15,-35.5 -52.5,-30.4 -176.3,-95.2 -176.3,29.83z"/>
   <path class="fil0" d="M3365.4 3512.97l0 439.45c0,104.16 146.5,77.35 146.5,9.76l0 -449.21c0,-96.66 -146.5,-96.66 -146.5,0z"/>
  </g>
 </g>
</svg>
