<?xml version="1.0" encoding="UTF-8" standalone="no"?>
<!-- Creator: CorelDRAW 2021.5 -->

<svg
   xml:space="preserve"
   width="60mm"
   height="60mm"
   version="1.1"
   style="shape-rendering:geometricPrecision; text-rendering:geometricPrecision; image-rendering:optimizeQuality; fill-rule:evenodd; clip-rule:evenodd"
   viewBox="0 0 6000 6000"
   id="svg17"
   sodipodi:docname="list.svg"
   inkscape:version="1.1.1 (3bf5ae0d25, 2021-09-20)"
   xmlns:inkscape="http://www.inkscape.org/namespaces/inkscape"
   xmlns:sodipodi="http://sodipodi.sourceforge.net/DTD/sodipodi-0.dtd"
   xmlns="http://www.w3.org/2000/svg"
   xmlns:svg="http://www.w3.org/2000/svg"><sodipodi:namedview
   id="namedview19"
   pagecolor="#ffffff"
   bordercolor="#666666"
   borderopacity="1.0"
   inkscape:pageshadow="2"
   inkscape:pageopacity="0.0"
   inkscape:pagecheckerboard="0"
   inkscape:document-units="mm"
   showgrid="false"
   inkscape:zoom="3.1705903"
   inkscape:cx="113.22813"
   inkscape:cy="130.73275"
   inkscape:window-width="1680"
   inkscape:window-height="987"
   inkscape:window-x="-8"
   inkscape:window-y="-8"
   inkscape:window-maximized="1"
   inkscape:current-layer="Layer_x0020_1" />
 <defs
   id="defs4">
  <style
   type="text/css"
   id="style2">
   <![CDATA[
    .fil0 {fill:#00A2E9}
   ]]>
  </style>
 <pattern
   id="EMFhbasepattern"
   patternUnits="userSpaceOnUse"
   width="6"
   height="6"
   x="0"
   y="0" /></defs>
 <g
   id="Layer_x0020_1"
   inkscape:label="Layer 1"><path
   style="fill:#00A2E9;fill-opacity:1;fill-rule:evenodd;stroke:none;stroke-width:26.4583"
   d="m 1540.9093,1522.7942 h 2843.077 V 4681.4351 H 1540.9093 Z M 2936.4562,451.23743 h 50.9835 c 112.9633,5.0026 222.9276,44.02287 294.9042,116.06029 59.9806,59.03067 135.9559,139.07225 144.953,244.12681 94.9691,0 325.8942,-29.01505 368.8802,133.06915 252.9179,0 505.8357,1.00052 758.7536,0 145.9526,0 204.9336,22.01143 289.9061,89.04632 60.9801,49.0255 116.962,161.0837 116.962,252.131 v 3679.9116 c 0,176.0915 -156.9493,341.1773 -331.8923,341.1773 H 1294.9892 c -174.9433,0 -331.89226,-165.0858 -331.89226,-341.1773 V 1285.671 c 0,-101.0525 64.97886,-212.1102 122.96006,-256.1331 88.9711,-68.0354 139.9545,-85.04422 293.9045,-85.04422 249.9189,0 498.8381,0 748.757,0 15.9948,-60.03118 77.9747,-102.05302 132.9568,-122.06341 59.9806,-22.01145 161.9475,-11.00574 236.9231,-11.00574 7.9974,-106.05508 87.9714,-189.09822 148.9517,-249.12941 69.9772,-69.03586 177.9422,-106.05509 288.9061,-111.05769 z M 2299.663,1039.5431 c 0,-47.02445 147.952,-29.0151 236.9231,-29.0151 185.9396,0 124.9594,27.0141 143.9532,-121.06292 41.9864,-327.16996 521.8306,-327.16996 563.817,0 19.9935,150.07802 -70.977,125.06502 276.9101,121.06292 131.9572,-1.0005 104.966,-48.02498 104.966,313.1627 H 2299.663 Z M 1341.9739,1437.75 v 3318.7241 c 0,90.0467 52.9828,124.0645 141.9539,124.0645 h 2957.04 c 89.9708,0 141.954,-34.0178 141.954,-124.0645 V 1437.75 c 0,-73.038 -40.9869,-114.0593 -113.9632,-114.0593 h -643.7908 v -180.0935 h 804.7387 c 49.9837,0 132.9568,54.028 132.9568,142.0738 v 3679.9116 c 0,109.0567 -87.9716,152.079 -198.9354,152.079 H 1360.9677 c -110.964,0 -198.9354,-43.0223 -198.9354,-152.079 V 1285.671 c 0,-58.0302 30.9899,-97.0505 75.9753,-123.064 15.9948,-10.0052 30.99,-19.0098 56.9816,-19.0098 h 805.7384 v 180.0935 h -644.7907 c -72.9763,0 -113.963,41.0213 -113.963,114.0593 z"
   id="path104" /><path
   style="fill:#00A2E9;fill-opacity:1;fill-rule:evenodd;stroke:none;stroke-width:26.4583"
   d="m 2355.6448,2623.3659 c 0,-543.2822 656.7868,-801.4163 1031.6651,-434.2256 376.8775,370.1923 132.9568,1040.5406 -433.8592,1040.5406 -178.9419,0 -328.8932,-86.0446 -419.8636,-177.092 -93.9695,-94.0489 -177.9423,-245.1274 -177.9423,-429.223 z m 597.8059,-796.4137 c -39.987,8.0041 -139.9545,-18.0094 -328.8932,69.0358 -170.9445,79.0411 -323.8948,232.1206 -396.8711,408.2121 -202.9341,485.2521 84.9724,999.5192 566.8159,1103.5732 443.8559,96.0501 876.7153,-210.1091 951.6911,-616.3201 71.9767,-390.2027 -120.9606,-760.395 -465.8488,-904.4698 -51.9831,-22.0115 -89.9708,-33.0172 -150.951,-47.0245 -36.988,-8.0041 -51.9831,-12.0062 -90.9705,-14.0072 -16.9944,0 -29.9902,-1.0006 -46.9847,-1.0006 z"
   id="path106" /><path
   style="fill:#00A2E9;fill-opacity:1;fill-rule:evenodd;stroke:none;stroke-width:26.4583"
   d="m 2498.5984,4292.2328 c 0,63.0327 6.9977,123.064 112.9633,123.064 h 1232.5997 c 127.9586,0 142.9536,-199.1034 -18.9936,-199.1034 H 2630.5556 c -56.9815,0 -131.9572,24.0125 -131.9572,76.0394 z"
   id="path108" /><path
   style="fill:#00A2E9;fill-opacity:1;fill-rule:evenodd;stroke:none;stroke-width:26.4583"
   d="m 2498.5984,3836.9963 c 0,74.0386 11.9961,123.064 131.9572,123.064 h 1194.6122 c 160.9476,0 146.9522,-199.1034 18.9936,-199.1034 H 2611.5617 c -27.9909,0 -58.9808,8.0041 -74.9756,19.0097 -13.9955,8.0042 -37.9877,38.0199 -37.9877,57.0297 z"
   id="path110" /><path
   style="fill:#00A2E9;fill-opacity:1;fill-rule:evenodd;stroke:none;stroke-width:26.4583"
   d="m 2867.4787,2736.4246 c -45.9851,-31.0161 -72.9764,-83.0431 -126.9588,-110.0571 -77.9747,-38.0198 -137.9553,42.0218 -137.9553,82.0426 0,68.0353 68.9777,111.0577 106.9653,149.0774 186.9393,188.0977 141.9539,166.0863 496.8387,-189.0982 86.9718,-87.0452 222.9276,-189.0982 204.9335,-266.1382 -15.9948,-67.0349 -66.9783,-73.038 -116.9621,-73.038 -39.987,0 -407.8675,379.197 -426.8613,407.2115 z"
   id="path112" /><path
   style="fill:#00A2E9;fill-opacity:1;fill-rule:evenodd;stroke:none;stroke-width:26.4583"
   d="m 2100.7276,3960.0603 c 73.976,0 283.9078,29.015 283.9078,-95.0494 0,-134.0697 -164.9464,-104.054 -302.9017,-104.054 -128.9581,0 -143.9533,199.1034 18.9939,199.1034 z"
   id="path114" /><path
   style="fill:#00A2E9;fill-opacity:1;fill-rule:evenodd;stroke:none;stroke-width:26.4583"
   d="m 2081.7337,4415.2968 c 137.9553,0 302.9017,30.0157 302.9017,-104.054 0,-20.0104 -22.9925,-57.0296 -35.9883,-68.0355 -45.9851,-39.0202 -174.9432,-27.0139 -247.9195,-27.0139 -161.9475,0 -147.952,199.1034 -18.9939,199.1034 z"
   id="path116" /><path
   style="fill:#00A2E9;fill-opacity:1;fill-rule:evenodd;stroke:none;stroke-width:26.4583"
   d="m 2934.4569,897.46926 h 56.9815 c 5.9981,25.01299 13.9955,66.03428 -28.9906,66.03428 -41.9864,0 -34.9886,-40.02079 -27.9909,-66.03428 z m -123.9598,9.00467 c 0,237.12327 303.9014,237.12327 303.9014,0 0,-172.0894 -303.9014,-172.0894 -303.9014,0 z"
   id="path118" />
  <metadata
   id="CorelCorpID_0Corel-Layer" />
  
 </g>
</svg>
