<?xml version="1.0" encoding="UTF-8"?>
<!DOCTYPE svg PUBLIC "-//W3C//DTD SVG 1.1//EN" "http://www.w3.org/Graphics/SVG/1.1/DTD/svg11.dtd">
<!-- Creator: CorelDRAW 2021.5 -->
<svg xmlns="http://www.w3.org/2000/svg" xml:space="preserve" width="60mm" height="60mm" version="1.1" style="shape-rendering:geometricPrecision; text-rendering:geometricPrecision; image-rendering:optimizeQuality; fill-rule:evenodd; clip-rule:evenodd"
viewBox="0 0 6000 6000"
 xmlns:xlink="http://www.w3.org/1999/xlink"
 xmlns:xodm="http://www.corel.com/coreldraw/odm/2003">
 <defs>
  <style type="text/css">
   <![CDATA[
    .fil0 {fill:#00A2E9}
   ]]>
  </style>
 </defs>
 <g id="Layer_x0020_1">
  <metadata id="CorelCorpID_0Corel-Layer"/>
  <g id="_2481253465008">
   <path class="fil0" d="M2399.41 5254.25l936.9 0c197.86,0 268.98,67.33 343.51,208.18l-1603.15 0c34.38,-64.92 51.07,-104.44 112.58,-147.67 51.61,-36.24 124.88,-60.51 210.16,-60.51zm955.65 -4913.55l63.62 0c147.13,3.45 295.57,30.25 439.45,81.94 126.06,45.3 217.24,100.62 319.49,169.8 52.46,35.48 90.42,76.98 137.23,112.58l116.07 123.4c53.47,65.82 165.33,215.47 185.81,303.44 165.75,0 228.11,-8.89 347.21,48.37 196.64,94.51 299.15,261.94 298.26,492.91l2.49 1382.08c15.42,55.79 384.8,280.27 153.91,606.59 -44.32,62.65 -88.52,78.28 -156.44,114.22 0,188.88 25.7,557.12 -41.63,707.87 -30.71,68.8 -47.77,92.53 -95.22,144.22l-69.6 65.73c-52.63,42.26 -180.41,102.34 -272.43,102.34l-1384.53 0 0 249.84c91.68,0 145.07,15.51 218.88,51.83 189.27,93.11 291.23,270.62 291.23,489.5 0,30.54 -52.8,83.29 -83.3,83.29l-1894.63 0c-15.04,0 -51.06,-24.52 -59.91,-33.74 -92.31,-96.7 57.22,-590.88 486.72,-590.88l0 -249.84 -1384.52 0c-231.48,0 -478.88,-247.36 -478.88,-478.84l0 -2706.6c0,-94.38 59.06,-224.61 117,-289.03 147.67,-164.19 255.79,-189.9 476.39,-189.86 357.42,0.05 714.83,0 1072.24,0 18.66,-80.21 136.13,-241.96 185.8,-303.48 248.67,-307.73 621.38,-478.96 1009.29,-487.68zm-789.1 4455.49l624.57 0 0 249.84 -624.57 0 0 -249.84zm-1863.4 -572.54l0 -135.33 4351.42 0c0,235.31 1.39,499.69 -364.36,499.69l-3622.7 0c-235.19,0 -364.36,-129.18 -364.36,-364.36zm3539.4 -1478.23c57.55,-38.55 106.59,-99.18 153.32,-148.6 19.3,-20.39 33.33,-34.76 54.9,-49.17 30.29,45.21 395.25,400.43 465.86,471.04 51.28,51.28 317.17,304.25 343.17,354.34 31.85,61.3 26.12,126.48 -19.63,172.2 -117.13,117.13 -241.09,-38.09 -292.32,-89.33l-468.48 -468.43c-58.73,-58.77 -198.19,-184.37 -236.82,-242.05zm-1998.74 -1030.61c-2.73,-14.15 21.74,-229.16 26.93,-254.18 46.51,-224.57 153.61,-406.63 307.27,-567.15l63.83 -61.09c268.98,-268.09 817.67,-366.56 1201.8,-186.44 163.3,76.51 211.92,120.67 342.62,229.92 83.97,70.19 187.03,237.25 236.83,335.71 176.87,349.87 128.71,792.98 -86.8,1117.49 -121.68,183.19 -268.64,299.85 -464.93,399.08 -141.4,71.5 -277.02,91.34 -463.55,109.88 -128.63,12.77 -349.7,-45.59 -472.6,-96.91 -66.11,-27.59 -127.62,-64.16 -181.42,-99.64l-175.78 -146.96c-185.72,-193.98 -316.21,-442.56 -323.54,-717.48 -1.26,-46.13 -6.19,-39.09 -10.66,-62.23zm2456.81 -374.77c144.3,0 251.53,59.16 305.62,152.44 63.33,109.25 48.33,255.03 48.33,420.15 0,312.28 0,624.57 0,936.9l-486.76 -481.41c149.32,-289.87 209.78,-558.64 159.64,-888.36 -8.38,-55.28 -20.73,-91.98 -26.83,-139.72zm-2664.98 291.52c0,124.29 7.2,343.76 52.03,437.21l-874.59 -0.13c-267.59,-1.89 -193.9,175.49 -123.83,207.38 54.73,24.94 998.97,11.38 1081.72,11.38 50.09,94.67 115.61,209.31 189.84,288.99 249.14,267.33 582.74,470.91 965.69,470.91 309.71,0 467.42,-33.2 739.09,-176.95 32.27,48.2 617.54,622.76 710.48,715.7 61.86,61.81 176.5,191.87 278.5,200.39l0 93.7 -4351.42 0 0 -2175.73c0,-360.74 254.56,-364.37 499.69,-364.37 291.47,0 582.95,0 874.42,0 -6.28,75.71 -41.62,155.52 -41.62,291.52z"/>
   <path class="fil0" d="M4096.22 1694c0,385.01 -331.33,707.75 -707.87,708 -33.54,0.04 -122.36,-14.66 -155.6,-21.49 -258.19,-53.13 -472.9,-270.74 -530.95,-530.83 -25.07,-112.12 -25.07,-199.2 0,-311.32 49,-219.42 196.34,-392 398.49,-486.38 76.59,-35.77 206.11,-66.02 288.06,-65.98 272.17,0.21 524.51,168.2 642.02,419.94 33.58,71.96 65.85,188.04 65.85,288.06zm-1623.96 -31.22c0,392.34 182.98,690.56 523.83,860.73 425.63,212.47 981.06,41.42 1218.19,-430.39 299.69,-596.22 -160.82,-1315.21 -794.71,-1315.21 -304.92,0 -538.12,103.27 -731.3,320.12 -19.88,22.29 -30.54,42.81 -47.99,66.53 -32.9,44.74 -54.85,83.97 -81.44,137.18 -46.22,92.61 -86.58,226.38 -86.58,361.04z"/>
   <path class="fil0" d="M1025.25 3172.23c0,74.82 51.06,114.51 124.92,114.51l811.99 0c32.27,0 69.26,-10.11 89.99,-24.52 77.48,-53.84 56.75,-194.1 -89.99,-194.1l-801.58 0c-68.47,0 -135.33,36.53 -135.33,104.11z"/>
   <path class="fil0" d="M1025.25 2672.53c0,74.83 51.06,114.52 124.92,114.52l749.55 0c156.69,0 187.86,-218.59 -20.82,-218.59l-718.32 0c-68.47,0 -135.33,36.49 -135.33,104.07z"/>
   <path class="fil0" d="M3284.24 1308.82c0,38.39 -4.81,70.37 40.78,105 58.06,44.11 139.97,-3.04 243.24,100.27 103.31,103.27 53.38,171.06 95.89,237.21 61.05,94.92 192.63,30.38 192.63,-36.49l0 -52.03c0,-217.78 -219.43,-437.21 -437.21,-437.21 -49.89,0 -135.33,13.57 -135.33,83.25z"/>
   <path class="fil0" d="M2316.11 3172.23c0,155.47 208.18,145.19 208.18,0 0,-130.28 -208.18,-130.28 -208.18,0z"/>
  </g>
 </g>
</svg>
