<?xml version="1.0" encoding="UTF-8" standalone="no"?>
<!-- Creator: CorelDRAW 2021.5 -->

<svg
   xml:space="preserve"
   width="60mm"
   height="60mm"
   version="1.1"
   style="shape-rendering:geometricPrecision; text-rendering:geometricPrecision; image-rendering:optimizeQuality; fill-rule:evenodd; clip-rule:evenodd"
   viewBox="0 0 6000 6000"
   id="svg17"
   sodipodi:docname="payment.svg"
   inkscape:version="1.1.1 (3bf5ae0d25, 2021-09-20)"
   xmlns:inkscape="http://www.inkscape.org/namespaces/inkscape"
   xmlns:sodipodi="http://sodipodi.sourceforge.net/DTD/sodipodi-0.dtd"
   xmlns="http://www.w3.org/2000/svg"
   xmlns:svg="http://www.w3.org/2000/svg"><sodipodi:namedview
   id="namedview19"
   pagecolor="#ffffff"
   bordercolor="#666666"
   borderopacity="1.0"
   inkscape:pageshadow="2"
   inkscape:pageopacity="0.0"
   inkscape:pagecheckerboard="0"
   inkscape:document-units="mm"
   showgrid="false"
   inkscape:zoom="3.1705903"
   inkscape:cx="113.22813"
   inkscape:cy="113.38583"
   inkscape:window-width="1680"
   inkscape:window-height="987"
   inkscape:window-x="-8"
   inkscape:window-y="-8"
   inkscape:window-maximized="1"
   inkscape:current-layer="Layer_x0020_1" />
 <defs
   id="defs4">
  <style
   type="text/css"
   id="style2">
   <![CDATA[
    .fil0 {fill:#00A2E9}
   ]]>
  </style>
 <pattern
   id="EMFhbasepattern"
   patternUnits="userSpaceOnUse"
   width="6"
   height="6"
   x="0"
   y="0" /></defs>
 <g
   id="Layer_x0020_1"
   inkscape:label="Layer 1">
  <metadata
   id="CorelCorpID_0Corel-Layer" />
  
 <path
   style="fill:#00A2E9;fill-opacity:1;fill-rule:evenodd;stroke:none;stroke-width:26.4583"
   d="m 2518.6349,3038.4003 c 112.9633,-26.0136 32.9892,-49.0255 253.9175,-49.0255 88.9711,0 114.9627,35.0181 175.9429,49.0255 -9.9968,36.0187 -178.9419,201.1045 -214.9302,224.1163 -43.9858,-29.015 -184.94,-169.0878 -214.9302,-224.1163 z M 1945.8208,361.00944 h 32.9893 c 28.9906,7.00364 59.9805,32.01663 102.9666,76.0395 344.888,346.17983 227.926,294.15282 457.8513,218.11332 184.94,-60.03119 344.8881,-147.07641 535.8261,-147.07641 277.9099,0 502.8366,144.07484 731.7623,263.13668 166.9458,87.04522 363.882,225.11695 527.8287,225.11695 2.9991,-167.08679 147.9521,-127.06599 370.8797,-127.06599 0,-42.02184 -3.9989,-176.09148 77.9746,-176.09148 h 614.8004 c 47.9845,0 87.9715,40.02077 87.9715,88.04574 V 2031.8774 c 0,96.0499 -88.9711,88.0457 -184.94,88.0457 h -820.7335 c -6.9977,27.0141 -31.9898,55.0286 -50.9834,76.0396 -69.9773,77.04 -97.9683,115.0597 -200.9349,180.0935 -99.9675,63.0328 -274.9108,142.0738 -430.8602,105.0546 -40.9866,61.0317 -198.9352,204.106 -261.9148,266.1382 l -521.8306,523.2718 c -52.9828,52.0271 -210.9316,237.1233 -280.9088,237.1233 -52.9828,0 -94.9692,-51.0265 -123.9598,-81.0422 L 1140.0824,1955.8379 C 687.22938,1502.6025 693.22748,1587.6466 954.14278,1325.5105 L 1837.8559,442.05154 c 45.985,-46.02391 77.9747,-73.03794 107.9649,-81.0421 z M 3407.3464,2354.0448 c 25.9916,7.0036 125.9591,63.0327 155.9493,78.0405 -18.9939,29.0151 -73.9761,89.0463 -106.9652,98.0509 -26.9914,-51.0265 -48.9841,-98.0509 -48.9841,-176.0914 z m 0,0 M 1991.8059,1953.8369 Z m 0,0 c 0,-177.092 67.9779,-274.1424 214.9302,-352.183 43.9857,189.0983 147.952,296.1539 320.8958,353.1835 45.9851,15.0078 124.9595,37.0192 166.9458,57.0296 -10.9964,132.0686 -163.9467,274.1424 -311.8987,274.1424 -110.964,0 -207.9325,-10.0052 -295.9039,-105.0545 -43.9858,-48.025 -94.9692,-138.0718 -94.9692,-227.118 z M 4910.8581,888.28335 h 380.8764 V 1924.8218 H 4910.8581 Z M 4539.9787,1074.38 h 165.9461 v 850.4418 h -165.9461 z m -3301.9281,252.131 c 15.9948,63.0327 94.9692,152.079 42.986,335.1741 -12.9957,43.0224 -31.9896,69.0359 -40.9866,106.0551 l -221.928,-217.1128 z m 548.8218,607.3155 c 0,139.0722 69.9773,301.1564 162.9471,394.2048 16.9945,17.0088 18.9939,16.0083 37.9877,31.0161 225.9266,175.0909 487.8416,179.093 716.7673,5.0026 44.9854,-34.0177 77.9747,-73.038 110.9639,-123.064 49.9838,-73.0379 49.9838,-109.0566 73.976,-160.0831 l 322.8952,106.0551 c -18.9939,204.106 -24.9918,302.157 106.9652,499.2593 l -221.9279,217.1128 c -235.9234,-160.0831 -487.8416,-161.0837 -724.7647,-2.001 l -988.679,-984.5115 c 12.9958,-43.0223 44.9854,-73.0379 71.9766,-147.0764 49.9838,-138.0717 54.9822,-307.1595 0.9997,-443.2302 -18.9938,-45.0234 -61.9799,-111.0577 -69.9773,-145.0753 l 211.9312,-217.11284 c 52.9828,29.01508 97.9682,62.03224 156.9491,82.04264 202.9341,68.0353 392.8724,38.0197 567.8156,-79.04108 l 206.9329,202.10498 c -139.9546,15.0078 -215.9299,110.0572 -270.9121,192.0998 -37.9877,56.0291 -45.9851,0 -199.9351,93.0483 -78.9743,48.025 -137.9552,106.0551 -186.9393,184.0957 -43.9857,69.0358 -85.9721,187.0972 -85.9721,295.1533 z M 2528.6316,869.27349 c 148.9516,-35.01821 382.8757,-156.0811 497.8384,-156.0811 267.913,0 327.8935,51.02651 562.8174,169.08786 182.9405,91.04728 398.8704,238.12365 563.8167,286.14865 62.9796,18.0093 120.9609,19.0099 181.941,33.0171 v 762.3961 c -8.9971,98.0509 -251.9182,322.1673 -439.8571,322.1673 -215.9299,0 -374.8783,-68.0353 -488.8412,-214.1112 -58.981,-74.0385 -149.9516,-82.0426 -282.9083,-127.066 l -594.8069,-206.1071 c -201.9344,-115.0597 -122.9601,-371.1928 58.9808,-371.1928 126.9588,0 841.7267,283.1471 985.6801,283.1471 15.9949,0 45.9851,-22.0114 54.982,-33.0172 60.9804,-81.0421 0,-143.0743 -92.9698,-173.0899 -94.969,-31.0161 -627.7961,-185.0961 -672.7815,-226.1174 L 2550.6245,906.29272 c -27.9909,-31.01613 -9.9968,-14.00728 -21.9929,-37.01923 z m -568.8153,-266.13827 219.9286,215.11176 c -51.9832,35.01819 -123.9598,61.0317 -207.9325,61.0317 h -18.9938 c -91.9702,0 -144.953,-27.01404 -204.9335,-59.03068 z"
   id="path104" /><path
   style="fill:#00A2E9;fill-opacity:1;fill-rule:evenodd;stroke:none;stroke-width:26.4583"
   d="M 683.23068,3956.8775 H 1064.1071 V 4982.4102 H 683.23068 Z M 2942.4972,5363.6081 h -108.9646 c -103.9662,-7.0035 -208.9321,-37.0192 -323.8948,-88.0457 -171.9442,-76.0394 -401.8696,-202.1049 -556.8192,-292.1516 -154.9497,-90.047 -163.9468,-74.0386 -312.8985,-108.0563 -2.999,167.087 -135.9558,127.0661 -370.8796,127.0661 0,58.03 11.9961,185.0962 -106.9652,185.0962 H 605.25598 c -62.9795,0 -116.962,-36.0188 -116.962,-97.0505 v -1260.655 c 0,-29.015 36.988,-63.0327 64.9789,-72.0373 44.9854,-15.0079 871.71702,-6.0031 940.69462,-6.0031 77.9747,-148.077 340.8893,-362.1881 565.8163,-362.1881 230.9251,0 362.8822,28.0146 541.8241,162.0842 102.9666,77.0398 83.9727,111.0576 164.9465,138.0715 77.9746,25.0132 143.9532,47.0247 219.9286,73.038 149.9512,50.0261 300.9023,104.0543 451.8532,153.0797 131.9572,44.0227 278.9095,148.0767 310.8992,285.1481 38.9871,-19.0101 166.9457,-49.0254 219.9285,-63.0328 l 428.8608,-118.0613 c 74.9758,-22.0114 137.9551,-44.0229 229.9253,-44.0229 152.9503,0 290.9057,106.055 341.889,215.1118 68.9777,149.0773 41.9865,359.1867 -91.9702,465.2417 -91.97,73.038 -122.9601,93.0482 -246.9198,135.0701 l -832.7297,299.1554 c -158.9482,63.0327 -395.8714,134.0696 -553.82,198.103 -106.9652,43.0223 -205.9332,68.0353 -301.9021,75.0388 z M 1269.0405,3956.8775 h 165.9462 v 840.4365 h -165.9462 z m 1054.6576,361.1875 c 0,102.0532 142.9536,121.063 217.9293,143.0745 l 547.8221,175.0909 c 212.9308,61.0317 387.8741,158.0822 593.8073,-71.0369 57.981,-65.0338 54.982,-113.0589 71.9767,-143.0743 18.9936,-31.0163 114.9625,-49.0257 155.9491,-59.0306 l 504.8361,-139.0724 c 104.9661,-30.0157 109.9643,-43.0223 220.9284,-43.0223 170.9444,0 286.9068,280.1456 -11.9962,398.2069 l -1416.54,507.2634 c -188.9387,66.0344 -256.9166,115.0599 -494.8394,53.0275 -104.9659,-28.0143 -336.8906,-155.0805 -444.8555,-209.1087 -181.9409,-90.0467 -370.8796,-251.1303 -628.7959,-251.1303 v -781.4059 c 0,-50.0261 228.9257,-312.1623 458.8511,-312.1623 187.939,0 369.8799,84.0439 464.849,209.1087 64.979,85.0442 130.9575,82.0425 278.9095,131.0682 135.9559,46.0238 268.9127,93.0482 399.8701,137.0711 91.9702,31.0161 320.8959,85.0443 320.8959,226.1175 0,328.1703 -286.907,195.1013 -439.8572,148.0769 l -458.851,-147.0763 c -42.9861,-14.0073 -72.9764,-23.0121 -119.9611,-37.0194 -41.9863,-12.0063 -77.9747,-32.0165 -122.9601,-32.0165 -49.9837,0 -97.9682,51.0265 -97.9682,97.0503 z"
   id="path106" /><path
   style="fill:#00A2E9;fill-opacity:1;fill-rule:evenodd;stroke:none;stroke-width:26.4583"
   d="m 3798.2193,1660.6846 c 0,140.0728 193.9372,140.0728 198.9354,8.0041 4.9985,-139.0722 -198.9354,-134.0696 -198.9354,-8.0041 z"
   id="path108" /><path
   style="fill:#00A2E9;fill-opacity:1;fill-rule:evenodd;stroke:none;stroke-width:26.4583"
   d="m 2069.7806,4308.0597 c 140.9542,0 147.9519,-195.1011 0,-195.1011 -123.9598,0 -117.9617,195.1011 0,195.1011 z"
   id="path110" /></g>
</svg>
