<?xml version="1.0" encoding="UTF-8"?>
<!DOCTYPE svg PUBLIC "-//W3C//DTD SVG 1.1//EN" "http://www.w3.org/Graphics/SVG/1.1/DTD/svg11.dtd">
<!-- Creator: CorelDRAW 2021.5 -->
<svg xmlns="http://www.w3.org/2000/svg" xml:space="preserve" width="49.9979mm" height="49.9254mm" version="1.1" style="shape-rendering:geometricPrecision; text-rendering:geometricPrecision; image-rendering:optimizeQuality; fill-rule:evenodd; clip-rule:evenodd"
viewBox="0 0 4996.32 4989.08"
 xmlns:xlink="http://www.w3.org/1999/xlink"
 xmlns:xodm="http://www.corel.com/coreldraw/odm/2003">
 <defs>
  <style type="text/css">
   <![CDATA[
    .fil0 {fill:#1D1819}
   ]]>
  </style>
 </defs>
 <g id="Layer_x0020_1">
  <metadata id="CorelCorpID_0Corel-Layer"/>
  <g id="_1827564538256">
   <path class="fil0" d="M121.02 758.78c-15.86,30.23 -22.54,24.67 -43.26,54.34 -13.47,19.31 -19.76,31.77 -31,53.03 -23.93,45.28 -37.27,86.99 -40.65,145.58 -34.27,195.48 84.49,601.95 140.74,764.72 40.1,116.03 88.59,229.15 134.04,322.85 30.98,63.87 144.51,263.19 150.1,295.49l273.64 417.34c20.16,9.38 62.89,76.43 81.39,99.88 170.35,215.77 254.43,305.47 413.95,492.15l176.25 178.59c30.64,32.38 61.56,61.26 94.59,92.07l230.33 217.84c21.51,16.27 28.31,20.3 45.98,38.25 66.94,68.04 383,310.58 390.2,324.64 29.34,7.3 33,15.23 56.09,32.35l351.23 236.86c47.12,17.78 111.49,63.27 157.07,86.26 54.35,27.42 96,52.66 151.05,78.98 116.24,47.52 215.9,99.4 335.68,143.59 126.74,46.77 196.06,62.02 315.27,95.27l42.72 18.32c74.01,-8.79 363.83,82.23 535.79,19.97 109.78,-39.75 220.45,-175.09 317.26,-271.11l514.55 -512.59c19.53,-21.88 46.74,-50.83 68.77,-70.62 10.79,-81.16 -35.58,-83.83 -69.57,-127.03l-961.33 -503.18c-274.16,-159.79 -292.03,-95.43 -471.3,89.08 -84.72,87.2 -252.09,298.66 -467.68,194.29 -27.68,-6.1 -8.75,0.54 -28.26,-7.1 -15.56,-6.1 -11.19,-6.22 -19.45,-13.3 -71.1,-2.51 -405.35,-190.62 -431,-231.72 -47.51,-12.19 -262.95,-190.59 -296.39,-222.91 -28.77,-27.81 -41.08,-31.32 -69.53,-61.57 -62.1,-66.02 -246.81,-224.61 -327.39,-316.79 -64.54,-73.81 -320.71,-357.74 -341.1,-419.5 -55.76,-40.86 -204.63,-327.58 -241.64,-417.34 -28.46,-69.02 -70.8,-181.82 -53.16,-266.19 43.72,-209.16 392.72,-391.42 436.85,-543.43 40.41,-139.17 -174.43,-341.02 -191.82,-445.28 -22.84,-15.93 -24.74,-24.16 -41.77,-54.17 -9.25,-16.31 -20.78,-34.7 -31.47,-52.3 -22.56,-37.14 -50.82,-73.69 -63.8,-118.12 -25.22,-25.62 -254.21,-420.79 -257.78,-443.03l-31.9 -38.79c-62.97,-102.81 -26.95,-42.82 -84.99,-114.43 -129.18,28.09 -103.42,61.72 -229.32,174.44l-390.13 394.3c-34.9,35.05 -167.15,176.53 -197.83,190.05z"/>
   <path class="fil0" d="M2561.7 457.05c134.65,17.29 420,84.43 526.5,141.38 59.94,20.51 300.22,126.89 331.88,161.16 56.11,16.14 242.45,152.25 285.1,185.74l125.87 107.46c101.41,78.98 66.84,66.24 114.21,110.2 117.2,108.73 348.6,392.9 393.65,530.61 29.42,20.07 131.17,264.93 156.75,329.36 29.78,75 104.12,299.57 101.43,384.24 37,46.78 36.42,247.48 49.86,321.2l33.09 0.38 313.33 0.79c23.5,-231.72 -98.31,-704.9 -197.37,-922.93 -19.18,-42.21 -111.84,-225.91 -115.56,-257.22 -29.72,-17 -63.05,-90.67 -82.84,-123.87 -27.24,-45.72 -61.28,-84.46 -81.15,-133.5 -18.03,-7.03 -3.55,1.41 -18.84,-17.95 -171.46,-217.02 -261.41,-352.82 -500.26,-546.1 -28.29,-22.89 -184.67,-142.36 -192.82,-157.81l-252.24 -159.43c-84.78,-13.61 -463.12,-312.06 -1202.55,-333.95l-0.18 356.87 212.14 23.36z"/>
   <path class="fil0" d="M2555.32 1299.54c148.9,20.37 378.92,124.68 487.96,195.16l196.13 140.43 204.76 206.65c213.4,274.56 325.93,507.46 365.33,884.01l359.32 2.27c4.16,-96 -50.89,-288.27 -42.01,-339.24 -21.73,-27.02 -32.56,-83.38 -38.38,-116 -3.4,-4.82 -109.1,-275.29 -109.63,-280.88l-45.82 -69.7c-11.49,-21.39 -27.31,-50.52 -40.45,-71.79 -28.08,-45.47 -64.33,-92.69 -85.19,-138.07 -20.96,-7.58 -81.56,-100.78 -97.24,-118.09 -99.01,-109.29 -210.9,-222.45 -332.12,-309.64l-236.67 -154.66c-34.83,-5.39 -121.49,-54.64 -163.53,-73.21 -31.39,-13.86 -141.66,-48.44 -161.02,-62.86l-104.92 -26.97c-37.83,-14.64 28,13.09 -13.75,-6.38 -1.6,-0.74 -5.46,-0.71 -6.6,-3.82 -1.15,-3.12 -4.48,-2.48 -6.51,-4.02l-336.13 -48.33 0.58 359.13 205.88 36z"/>
   <path class="fil0" d="M2555.32 2123.72c141.37,48.03 349.24,262.92 405.24,400.6l77.13 203.06 297.53 -1.15c-1.73,-125.45 -62.16,-218.87 -78.82,-319.06 -12.81,-13.11 -5.54,-3.79 -17.63,-23.74l-37.78 -75.1c-79.29,-146.41 -206.53,-279.98 -342.18,-376.2l-183.16 -110.72c-35.49,-2.08 -109.3,-36.49 -152.27,-49.3 -59.06,-17.58 -109.44,-25.46 -173.59,-36.38l0 306.77c46.51,12.99 178.78,53.49 205.54,81.22z"/>
  </g>
 </g>
</svg>
