<?xml version="1.0" encoding="UTF-8"?>
<!DOCTYPE svg PUBLIC "-//W3C//DTD SVG 1.1//EN" "http://www.w3.org/Graphics/SVG/1.1/DTD/svg11.dtd">
<!-- Creator: CorelDRAW 2021.5 -->
<svg xmlns="http://www.w3.org/2000/svg" xml:space="preserve" width="60mm" height="60mm" version="1.1" style="shape-rendering:geometricPrecision; text-rendering:geometricPrecision; image-rendering:optimizeQuality; fill-rule:evenodd; clip-rule:evenodd"
viewBox="0 0 6000 6000"
 xmlns:xlink="http://www.w3.org/1999/xlink"
 xmlns:xodm="http://www.corel.com/coreldraw/odm/2003">
 <defs>
  <style type="text/css">
   <![CDATA[
    .fil0 {fill:#00A2E9}
   ]]>
  </style>
 </defs>
 <g id="Layer_x0020_1">
  <metadata id="CorelCorpID_0Corel-Layer"/>
  <g id="_2481930747728">
   <path class="fil0" d="M3384.06 1041.74c304,0 447.43,13.35 726.29,143.21 26.25,12.23 34.7,14.68 59.49,28.47 78.5,43.25 201.25,117.97 262.3,177.46 74.83,72.83 67.38,49.26 132.65,131.09 15.01,18.68 26.01,27.13 43.14,44.7 122.31,125.53 262.29,409.73 302.43,576.96 91.62,381.71 54.93,665.02 -88.73,1019.61 -16.57,40.92 -24.35,54.26 -46.03,90.73 -19.68,33.14 -29.8,54.82 -49.81,87.06l-181.46 228.83c-48.15,47.7 -90.51,88.28 -142.66,130.87 -45.7,37.25 -107.19,83.28 -161.11,112.41 -66.6,36.03 -112.97,65.94 -187.92,95.52 -303.43,120.3 -613.76,159.77 -936.32,77.94 -292.65,-74.28 -501.69,-192.03 -706.83,-397.28l-188.25 -222.16c-118.64,-167.45 -238.72,-489.9 -244.17,-713.28 -1.33,-56.04 -12.01,-71.05 -10.34,-127.09 11.56,-408.18 167.9,-775.44 452.43,-1062.52 29.57,-29.8 41.58,-37.48 72.83,-63.94 95.51,-80.72 220.05,-173.45 336.46,-220.49 164.45,-66.27 336.13,-138.1 555.61,-138.1zm-1944.37 1367.86c0,221.6 -6.78,251.28 30.58,477.44 27.24,164.46 90.51,340.02 158.33,486.57 134.99,291.87 202.59,154.11 -215.71,572.41 -116.41,116.3 -225.6,225.49 -342.01,341.9 -111.2,111.19 -424.75,406.07 -497.69,528.15 -261.07,437.2 174.46,871.28 603.42,613.21 132.1,-79.5 407.52,-374.71 529.38,-496.46l595.97 -596.08c140.33,-140.88 89.4,-49.71 546.06,123.19 458.43,173.57 1077.09,118.75 1503.28,-96.29 196.7,-99.18 335.69,-190.47 495.69,-344.57 26.9,-26.02 43.8,-31.25 68.82,-58.16 23.13,-24.68 27.69,-38.25 53.26,-63.93 150.44,-151.22 245.73,-324.01 339.8,-510.36 281.64,-557.84 233.61,-1345.17 -83.73,-1870.43 -150.77,-249.51 -348.25,-478.01 -588.53,-642.45 -125.42,-85.84 -162.67,-107.86 -307.99,-180.58 -490.01,-245.39 -1217.19,-254.96 -1709.98,-6.44 -160.67,80.94 -150.33,70.27 -305.44,173.23 -52.26,34.69 -92.29,67.6 -139.44,104.85 -28.12,22.24 -36.47,28.57 -62.26,55.04 -27.91,28.46 -40.59,33.91 -68.49,58.48 -43.48,38.15 -184.02,215.6 -220.05,258.74 -205.59,247.17 -383.27,741.97 -383.27,1072.54z"/>
   <path class="fil0" d="M3970.25 1823.41c227.83,0 301.11,-232.5 154.34,-369.27 -107.86,-100.29 -431.75,-138.87 -613.55,-138.87 -163,0 -364.92,56.82 -478.67,107.52l-191.25 101.85c-29.13,19.12 -57.15,40.47 -85.28,61.38 -175.35,130.42 -622.66,619.1 -339.13,794.34 64.6,39.8 150.33,46.36 222.05,7 132.09,-72.61 91.62,-265.19 403.39,-485.79 103.52,-73.38 263.08,-146.32 429.87,-156.44 343.57,-20.68 399.05,78.28 498.23,78.28z"/>
  </g>
 </g>
</svg>
