<?xml version="1.0" encoding="UTF-8"?>
<!DOCTYPE svg PUBLIC "-//W3C//DTD SVG 1.1//EN" "http://www.w3.org/Graphics/SVG/1.1/DTD/svg11.dtd">
<!-- Creator: CorelDRAW 2021.5 -->
<svg xmlns="http://www.w3.org/2000/svg" xml:space="preserve" width="60mm" height="60mm" version="1.1" style="shape-rendering:geometricPrecision; text-rendering:geometricPrecision; image-rendering:optimizeQuality; fill-rule:evenodd; clip-rule:evenodd"
viewBox="0 0 6000 6000"
 xmlns:xlink="http://www.w3.org/1999/xlink"
 xmlns:xodm="http://www.corel.com/coreldraw/odm/2003">
 <defs>
  <style type="text/css">
   <![CDATA[
    .fil0 {fill:#00A2E9}
   ]]>
  </style>
 </defs>
 <g id="Layer_x0020_1">
  <metadata id="CorelCorpID_0Corel-Layer"/>
  <path class="fil0" d="M2183.77 2102.52c-110.72,0 -1233.49,114.43 -1425.19,127.55 -160.02,10.95 -254,125.55 -264.28,249.36l0 45.61c5.65,67.45 36.45,134.23 95.25,185.37l537.14 468.73c29.76,29.61 49.19,39.6 78.12,68.36 29.77,29.61 49.2,39.6 78.12,68.36 29.77,29.62 49.2,39.6 78.12,68.37 29.84,29.66 49.62,39.6 78.23,68.25l78.06 68.43c50.14,46.92 103.1,97.19 158.62,134.36 -20.73,43.17 -332.04,1432.42 -332.04,1484.4 0,133.73 122.98,263.67 263.67,263.67 114.29,0 253.26,-104.02 365.57,-171.55l1021.17 -609.71 1179.81 704.98c118.61,71.62 253.78,128.49 385.53,0.97 126.22,-122.17 80.85,-241.51 49.89,-377.79l-83.95 -365.29c-14.17,-60.55 -26.27,-125.47 -43,-191.37l-124.89 -548.95c-10.29,-45.13 -31.03,-160.2 -45.02,-189.36l1081.14 -940.37c60.96,-50.48 93.89,-118.71 100.52,-188.07l0 -52.58c-11.55,-120.61 -102.6,-231.75 -264.39,-244.06 -159.86,-12.17 -314.74,-24.46 -476.25,-41.34 -150.56,-15.72 -321.31,-29.99 -471.87,-45.72l-476.96 -40.61c-3.8,-45.61 -470.53,-1114.91 -510.53,-1208.25 -28.55,-66.62 -52.13,-138.09 -93.21,-190 -100.47,-126.92 -305.66,-129 -409.28,-5.4 -58.82,70.18 -449.3,1015.05 -524.39,1194.37 -18.84,45.01 -80.43,169.96 -83.71,209.28z"/>
 </g>
</svg>
