<?xml version="1.0" encoding="UTF-8"?>
<!DOCTYPE svg PUBLIC "-//W3C//DTD SVG 1.1//EN" "http://www.w3.org/Graphics/SVG/1.1/DTD/svg11.dtd">
<!-- Creator: CorelDRAW 2021.5 -->
<svg xmlns="http://www.w3.org/2000/svg" xml:space="preserve" width="60mm" height="60mm" version="1.1" style="shape-rendering:geometricPrecision; text-rendering:geometricPrecision; image-rendering:optimizeQuality; fill-rule:evenodd; clip-rule:evenodd"
viewBox="0 0 6000 6000"
 xmlns:xlink="http://www.w3.org/1999/xlink"
 xmlns:xodm="http://www.corel.com/coreldraw/odm/2003">
 <defs>
  <style type="text/css">
   <![CDATA[
    .fil0 {fill:#00A2E9}
   ]]>
  </style>
 </defs>
 <g id="Layer_x0020_1">
  <metadata id="CorelCorpID_0Corel-Layer"/>
  <path class="fil0" d="M1109.56 3805.34l0 -78.13c62.89,0 87.74,19.54 156.26,19.54 71.2,0 107.26,-18.22 166.01,-19.54 0,65.18 -6.11,93.05 19.53,146.49 -34.17,22.88 -40.08,27.05 -70.65,56.31 -42.11,40.3 -62.67,41.35 -114.89,41.35 -96.06,0 -109.82,-60.02 -166.02,-97.66 2.54,-30.55 9.76,-34.69 9.76,-68.36zm3369.15 -87.89c123.28,59.16 259.71,9.76 322.26,9.76 0,133.05 -82.03,113.78 -156.25,224.61 -38.43,-25.73 -66.06,-61.26 -100.1,-95.21 -57.13,-56.98 -65.91,-36.04 -65.91,-139.16zm-1181.65 302.73l-187.92 -183.16c121.85,-65.6 225.47,-164.18 344.18,-226.99l70.64 66.08 -226.9 344.07zm-830.07 -341.79l66.08 -70.64c38.44,11.9 284.13,195.17 344.07,226.89l-183.17 187.92c-59.5,-108.66 -180.51,-256.34 -226.98,-344.17zm-1728.52 -87.89c0,-61.8 29.3,-96.32 29.3,-166.02 25.03,18.34 46.58,79.41 100.4,143.74 74.99,89.61 94.91,19.92 94.91,158.99 -72.11,-16.79 -224.61,-113.11 -224.61,-136.71zm849.61 136.71l0 -87.89c114.6,-60.63 153,-177.39 185.55,-214.84 4.76,57.23 26.72,113.06 39.06,166.02 -42.57,28.5 -121.79,112.76 -224.61,136.71zm1015.62 -390.62c215.71,114.14 453.58,125.14 687.45,42.91 40.28,-14.16 53.42,-29.78 93.81,-33.14l0 126.95c-61.57,32.57 -137.23,86.4 -193.83,128.44 -32.56,24.18 -66.36,45.03 -99.14,66.87 -33.39,22.25 -65.72,46.97 -97.66,68.36l-44.79 -33.33c-18.78,-12.49 -28.29,-18.69 -47.03,-31.1 -38.15,-25.26 -59.97,-43.46 -97.57,-68.44l-201.24 -130.8 0 -136.72zm2060.55 253.91c-109.09,0 -186.1,-15.46 -266.02,-85.54l-45.69 -42.2c-33.89,-35.66 -63.14,-87.32 -80.4,-134.45 -37.56,-102.52 -18.36,-150.32 -27.92,-274.81 -7.02,-91.4 -175.05,-248.95 2.64,-456.57 36.15,-42.25 127.99,-100.18 202.55,-100.18l664.06 0c0,93.73 6.95,293.36 -14.33,376.29 -11.1,43.27 -34.73,77.05 -50.43,115.59 -37.22,91.37 31.59,360.55 -148.39,505.9 -53.6,43.29 -142.49,95.97 -236.07,95.97zm-3007.81 -341.8c0,128.56 -106.61,252.92 -204.56,303.25 -119.02,61.16 -274.59,51.19 -390.81,-20.38 -89.71,-55.25 -163.56,-162.74 -175.56,-273.66 -9.87,-91.27 -6.19,-117 -88.45,-136.16 0,-193.15 18.19,-312.76 100.18,-427.17 279.8,-390.44 837.57,-165.06 847.29,290.25 1.19,55.47 8.65,85.87 9.57,127.15 -29.26,-21.43 -118.13,-192.7 -390.44,-263.86 -54.37,-14.2 -218.64,-53.14 -274.31,-29.91 -37.58,15.67 -151.59,142 -167.39,165.5 -52.77,78.45 57.58,163.45 130.64,81.1 88.26,-99.46 56.21,-112.51 217.56,-84.13 95.82,16.86 162.47,49.14 228.22,94.05 57.61,39.35 158.06,142.67 158.06,173.97zm1367.19 29.3l-58.59 0c-282.72,0 -500.78,-200.75 -595.82,-390.52 -143.92,-287.37 -21.61,-379.86 -114.41,-618.01 -55.08,-141.34 -41.73,-274.49 -41.73,-427.02 0,-175.99 94.2,-301.12 187.86,-388.32 101.99,-94.94 243.12,-139.02 437.14,-139.02l917.97 0c22.5,0 29.3,6.79 29.3,29.29 0,228.04 24.39,714.64 -44.95,912.09 -61.97,176.49 -42.42,121.62 -42.61,357.78 -0.17,218.8 -122.87,398.57 -276.69,524.09 -84.68,69.11 -246.65,139.64 -397.47,139.64zm-966.8 -1416.02c0,238.84 0.65,281.54 70.05,496.35 49.55,153.39 -65.96,284.24 141.71,659.08 24.39,44.02 178.87,213.96 178.87,231.29 0,254.42 35.47,184.18 -85.58,314.82 -18.17,19.61 -22.3,28.31 -39.44,48.45 -20.57,24.18 -27.88,26.15 -31.23,66.42 -49.31,4.1 -393.9,136.83 -460.67,164.35 -23.29,9.6 -59.05,33.96 -69.97,35.87 -25.22,4.42 -51.63,-15.87 -65.07,-34.21 78.72,-18.33 177.16,-94.77 224.72,-156.14 12.17,-15.71 24.31,-26.8 35.28,-43.31 45.92,-69.15 -44.33,-198.31 -45.48,-376.39l-12.04 -300.46c-32.94,-252.82 -137.66,-455.74 -368.26,-569.25 -201.9,-99.38 -453.16,-63.37 -625.47,68.36 -369.1,282.19 -196.34,652.13 -302.28,1025.85 -9.2,32.48 -29.51,61.53 -29.51,97.44 0,85.73 196.75,236.04 273.43,253.9 -49.59,67.68 -351.56,113.1 -351.56,351.57l0 585.94c0,67.64 147.23,104.21 147.18,-38.37l-1.05 -479.56c4.96,-195.77 162.05,-212.26 332.39,-302.39 96.26,64.46 137.93,166.01 292.97,166.01 172.38,0 211.46,-98.35 312.5,-166.01l68.16 39.43c-30.77,58.14 -58.4,111.95 -58.4,185.18l0 576.17c0,91.04 157.93,145.79 156.49,-68.12l-0.25 -429.93c-0.17,-138.78 15.01,-229.14 147.65,-282.05 135.87,-54.2 361.94,-115.85 477.36,-176.93 35.29,66.69 86.88,135.18 130.87,201.16 69.14,103.72 87.91,160.17 220.69,160.17 71,0 143.24,-111.61 195.32,-146.49l-0.24 674.07c-0.51,76 3.69,146.25 78.36,146.25 112.02,0 78.13,-206.74 78.13,-371.1 0,-149.74 0,-299.48 0,-449.22 35.31,23.65 57.97,55.5 90.2,85.59 47.62,44.48 85.63,60.9 153.94,60.9 81.1,0 134.91,-104.74 171.86,-160.17 44,-65.98 95.58,-134.47 130.87,-201.16 47.63,22.85 105.85,38.5 156.25,58.59 122.67,48.9 360.84,100.12 435.63,208.91 88.27,128.42 19.08,567.17 43.54,708.41 14.24,82.24 145.83,76.28 145.83,0.66l0 -615.24c0,-92.98 -63.51,-168.81 -107.42,-234.38 136.48,-11.35 39.41,-72.47 237.18,124.15 35.64,35.45 37.12,42.55 36.67,109.82l-1.23 587.17c0.88,46.14 16.79,87.07 69.18,87.07 101.45,0 78.13,-114.1 78.12,-214.85l-0.16 -449.38c-0.84,-76.94 -10.62,-74.64 31.4,-115.08 43.45,-41.81 110.29,-118.95 154.31,-148.43 88.81,20.69 184.31,53.58 273.48,78.09 238.58,65.58 175.74,229.95 175.74,546.91 0,174.39 -36.77,302.74 87.89,302.74 23.51,0 58.59,-35.08 58.59,-58.59l0 -634.77c0,-133.01 -98.64,-242.05 -201.1,-277.42 -61.63,-21.28 -121.89,-36.25 -180.91,-53.46 -146.07,-42.61 -164.86,-10.76 -164.86,-147.64 0,-32.21 48.9,-56.42 70.86,-75.61 220.42,-192.58 131.02,-458.29 175.97,-556.47 33.26,-72.67 65.67,-121.89 65.67,-227.29l0 -390.63c0,-47.23 -30.89,-78.13 -78.13,-78.13l-664.06 0c-351.24,0 -579.51,309.82 -485.1,592.52 14.45,43.26 26.2,57.15 42.96,93.77 43.63,95.29 -36.23,336.38 166.12,537.01 86.27,85.54 80.71,43.94 80.71,202.49 -273.09,63.62 -79.53,99.82 -406.4,-13.52 -49.58,-17.2 -178.28,-71.02 -218.6,-74.37 -8.27,-99.37 -156.25,-166.67 -156.25,-214.85l0 -214.84c0,-31.3 23.29,-30.68 46.36,-51.29l90.36 -104.95c14.43,-19.19 27.05,-34.02 41.19,-56.47 196.89,-312.58 102.24,-476.93 136.95,-654.07 3.27,-16.68 19.74,-51.22 27.06,-70.59 29.63,-78.34 48.7,-158.9 48.7,-254.04l0 -810.55c0,-47.23 -30.89,-78.12 -78.12,-78.12l-1132.82 0c-93.73,0 -200.23,36.99 -263.82,68.2 -91.28,44.82 -128.34,75.21 -197.61,144.19 -124.21,123.69 -202.63,289.99 -202.63,480.97z"/>
 </g>
</svg>
