<?xml version="1.0" encoding="UTF-8"?>
<!DOCTYPE svg PUBLIC "-//W3C//DTD SVG 1.1//EN" "http://www.w3.org/Graphics/SVG/1.1/DTD/svg11.dtd">
<!-- Creator: CorelDRAW 2021.5 -->
<svg xmlns="http://www.w3.org/2000/svg" xml:space="preserve" width="50.0001mm" height="46.0158mm" version="1.1" style="shape-rendering:geometricPrecision; text-rendering:geometricPrecision; image-rendering:optimizeQuality; fill-rule:evenodd; clip-rule:evenodd"
viewBox="0 0 4988.61 4591.08"
 xmlns:xlink="http://www.w3.org/1999/xlink"
 xmlns:xodm="http://www.corel.com/coreldraw/odm/2003">
 <defs>
  <style type="text/css">
   <![CDATA[
    .fil0 {fill:#00A2E9}
   ]]>
  </style>
 </defs>
 <g id="Layer_x0020_1">
  <metadata id="CorelCorpID_0Corel-Layer"/>
  <g id="_2481948096656">
   <path class="fil0" d="M1889.2 1124.25c-50.17,-36.77 -109.99,-162.28 -185.45,-162.28 -105.14,0 -127.48,68.93 -127.48,139.11 0,68.76 81.92,117.39 127.48,185.44 -35.94,53.72 -200.81,196.56 -343.23,410.14 -58.68,88.07 -247.86,419.51 -247.86,517.09 0,50.86 65.02,115.89 115.9,115.89 124.91,0 142.92,-147.33 189.19,-239.66 73.65,-147.18 180.95,-324.08 289.44,-452.34l273 -271.75c80.63,-65.1 158.46,-124.37 247.27,-181.54 25.1,-16.15 42.24,-23.37 66.8,-37.51l215.79 -108.76c454.82,-180.28 927.02,-230 1391.06,-36.49 671.79,280.14 1011.43,1079.6 753.92,1868.55 -76.84,235.52 -159.05,389.13 -283.09,574.58l-190.6 238.21c-541.04,584.94 -1581.13,911.38 -2303.82,431.73 -204.24,-135.56 -357.53,-287.9 -475.07,-510.11l660.83 0.24c107.5,-8.87 150.22,-131.81 77.98,-205.9 -17.02,-17.41 -57.69,-37.7 -89.76,-37.7l-1912.36 0c-97.38,0 -139.11,53.31 -139.11,139.06 0,106.91 92.21,104.82 197,104.34l938.84 -0.04c49.02,210.43 363.28,546.92 551.6,676.99 664.78,459.16 1492.3,370.73 2152.59,-24.27 990.42,-592.54 1529.09,-1925.01 835.56,-2929.11 -268.2,-388.3 -798.88,-690.66 -1268.08,-690.66 -380.55,0 -593.1,14.54 -945.59,155.49 -137.33,54.92 -318.04,150.3 -438.39,233.84 -49.85,34.6 -85.98,65.09 -134.33,97.45z"/>
   <path class="fil0" d="M2746.87 4230.42c295.46,0 563.74,-77.35 780.55,-181.43 306.07,-146.9 559.48,-359.46 749.47,-629.78 150.73,-214.49 221.49,-367.7 296.44,-630.78 30.43,-106.95 79.92,-296.52 -87.91,-296.52 -70.46,0 -106.16,47.64 -121.01,110.77 -101.79,432.12 -248.26,728.81 -605.52,1017.1 -169.28,136.62 -374.07,248.33 -613.75,313.51 -218.94,59.54 -362.1,48.31 -405.72,57.85 -151.91,33.22 -121.29,239.27 7.45,239.27z"/>
   <path class="fil0" d="M2955.48 2677.35c-26.68,0 -34.76,-8.07 -34.76,-34.79 0,-110.89 139.1,-117.31 139.1,-69.55 0,57.3 -47.05,104.34 -104.34,104.34zm-278.16 -69.55l0 69.55c0,124.25 129.28,243.37 254.99,243.37 109.39,0 188.21,-15.6 269.93,-100.96 89.3,-93.23 117.79,-194.27 89.38,-316.27l524.41 -449.19c83.07,-82.63 268.68,-196.24 258.38,-289.43 -8.43,-76.1 -62.3,-107.46 -133.73,-107.46 -56.91,0 -268.64,193.64 -315.77,240.54l-451.43 395.2c-67.43,63.13 -65.85,-19.93 -228.32,14.43 -123.06,26 -267.84,153.79 -267.84,300.22z"/>
   <path class="fil0" d="M3616.12 312.96l-579.51 0c10.52,-45.08 26.12,-69.55 81.13,-69.55l498.37 0c61.12,0 15.6,47.12 0,69.55zm-822.87 0c0,123.77 108.83,243.37 231.78,243.37l591.09 0c142.72,0 278.16,-157.63 278.16,-301.34 0,-128.9 -115.35,-255 -243.37,-255l-567.91 0c-140.53,0 -289.75,138.16 -289.75,312.96z"/>
   <path class="fil0" d="M521.58 2665.73c0,185.84 168.31,139.1 463.61,139.1 0,159.75 -29.39,324.51 139.06,324.51 137.38,0 104.31,-180.6 104.31,-324.51l556.33 0c156.64,0 157.59,-243.4 11.58,-243.4l-1170.58 0c-57.3,0 -104.31,47.04 -104.31,104.3z"/>
   <path class="fil0" d="M776.53 533.16c0,81.14 66.88,127.48 150.7,127.48l1031.52 0c198.41,0 183.35,-243.37 34.76,-243.37l-1101.04 0c-63.05,0 -115.93,53.48 -115.93,115.9z"/>
   <path class="fil0" d="M4230.42 544.74c0,101.87 13.56,90.28 146.04,178.51 142.76,95.04 186.19,136.35 303.07,253.22 46.94,46.93 149.27,191.39 260.59,92.53 188.6,-167.44 -519.29,-628.56 -582.22,-628.56 -70.85,0 -127.48,30.14 -127.48,104.3z"/>
   <path class="fil0" d="M-0 2039.89c0,85.74 41.73,139.06 139.11,139.06l602.67 0c190.1,0 172,-243.37 34.75,-243.37l-683.81 0c-16.67,0 -92.73,31.61 -92.73,104.31z"/>
   <path class="fil0" d="M521.58 4195.66c0,187.61 241.09,139.07 509.95,139.07 235.92,0 235.92,-255 0,-255 -192.97,0 -509.95,-44.3 -509.95,115.92z"/>
  </g>
 </g>
</svg>
