<?xml version="1.0" encoding="UTF-8"?>
<!DOCTYPE svg PUBLIC "-//W3C//DTD SVG 1.1//EN" "http://www.w3.org/Graphics/SVG/1.1/DTD/svg11.dtd">
<!-- Creator: CorelDRAW 2021.5 -->
<svg xmlns="http://www.w3.org/2000/svg" xml:space="preserve" width="60mm" height="60mm" version="1.1" style="shape-rendering:geometricPrecision; text-rendering:geometricPrecision; image-rendering:optimizeQuality; fill-rule:evenodd; clip-rule:evenodd"
viewBox="0 0 6000 6000"
 xmlns:xlink="http://www.w3.org/1999/xlink"
 xmlns:xodm="http://www.corel.com/coreldraw/odm/2003">
 <defs>
  <style type="text/css">
   <![CDATA[
    .fil0 {fill:#00A2E9}
   ]]>
  </style>
 </defs>
 <g id="Layer_x0020_1">
  <metadata id="CorelCorpID_0Corel-Layer"/>
  <path class="fil0" d="M640.78 3572.71l4707.05 0 0 1601.57 -4707.05 0 0 -1601.57zm4003.92 -1230.47l380.86 0 0 1074.22 -380.86 0 0 -1074.22zm-1376.95 732.43l263.67 0 0 341.79 -263.67 0 0 -341.79zm-2460.95 39.06l0 302.73 -166.02 0 0 -1425.79 166.02 0 0 683.6c0,59.19 9.74,103.76 57.03,119.9 44.75,15.28 99.22,-13.25 99.22,-71.06l0 -380.87 742.19 0c40.23,172.71 78.32,359.39 114.8,529.72 12.11,56.53 109.81,498.11 109.81,544.5l-966.8 0 0 -351.57c0,-97.04 -156.25,-131.23 -156.25,48.84zm2158.21 -263.68c0,-47.24 30.89,-78.12 78.12,-78.12l732.43 0c71.51,0 81.55,146.49 0,146.49l-751.96 0c-27.59,0 -58.59,-40.74 -58.59,-68.37zm820.32 -253.9l0 -253.91 400.39 0 0 1074.22 -507.82 0 0 -341.79 87.9 0c175.97,0 304.32,-233.31 159.14,-383.76 -23.7,-24.56 -33.86,-34.37 -67.57,-49.62 -59.11,-26.75 -72.04,-8.56 -72.04,-45.14zm-615.24 -1005.87c0,-106.37 98.53,-214.84 205.07,-214.84l48.83 0c102.17,0 205.09,102.91 205.09,205.08l0 1035.16 -458.99 0 0 -1025.4zm-908.21 751.96l751.96 0c0,435.52 13.19,203.53 -125,333.98 -145.13,137.02 -54.97,398.45 144.52,398.45l78.14 0 0 341.79 -595.71 0c-32.04,0 -26.33,-16.58 -32.73,-45.4l-160.08 -757.89c-10.71,-53.83 -45.12,-237.63 -61.1,-270.93zm2548.84 -351.57l214.84 0 0 205.09 -332.02 0c9.39,-40.33 36.79,-64.79 60.14,-96.1 22.51,-30.18 47.65,-68.68 57.04,-108.99zm-1025.39 0l244.14 0c7.04,84.64 98.91,136.66 117.18,205.09l-361.32 0 0 -205.09zm-2822.28 0l673.83 0c0,50.81 27.66,156.16 39.06,205.09l-712.89 0 0 -205.09zm1230.47 0l820.32 0 0 205.09 -781.25 0c-5.77,-69.29 -37.11,-134.39 -39.07,-205.09zm2119.16 -478.51l205.07 0 115.78 313.91c16.18,43.04 30.71,75.5 30.71,125.54 0,40.25 -166.03,199.88 -166.03,283.21l0 1181.64 -156.24 0 0 -1142.58c0,-165.61 -189.19,-267.44 -170.45,-355.07l109 -302.09c13.38,-33.75 28.89,-65.34 32.16,-104.56zm-2617.21 19.53c24.29,-11.65 197.13,-48 234.38,-48.83l381.56 1815.71c5.23,25.28 19.47,98.88 28.6,117.89l-253.91 0c0,-45.05 -35.59,-186.01 -46.45,-236.75l-322.7 -1523.01c-9.66,-40.81 -21.48,-78.56 -21.48,-125.01zm-1015.63 -380.86c36.97,-8.62 100.3,-26.27 136.72,-29.29 4.22,189.32 191.91,87.88 283.2,87.88 1.08,47.9 19.52,104.5 29.31,146.49 -78.41,0 -234.39,24.59 -234.39,117.19l9.77 68.35c-36.41,3.03 -99.75,20.69 -136.71,29.3 -16,-68.66 -30.44,-136.04 -44.75,-209.17 -14.47,-73.97 -33.83,-138.11 -43.15,-210.75zm1064.46 -322.27c0,234.15 505.95,-211.04 806.64,189.45 38.9,51.8 189.46,322.98 189.46,347.66 0,63.13 -56.06,85.7 -107.42,97.65 -16.78,-62.81 -102.18,-234.37 -224.61,-234.37 -55.27,0 -94.24,11.22 -144.11,21.91l-959.41 202.71 -87.9 -419.93c56.93,-4.74 132.36,-27.29 186.26,-38.35 117.79,-24.18 145.78,-24.69 145.78,-108.14 0,-102.94 -186.31,-38.08 -225.52,-30.2 -30.18,6.06 -55.59,12.96 -79.6,18.06 -62.18,13.2 -160.44,18.37 -179.11,113.85 -8.22,41.99 27.65,83.84 -111.47,83.84 0,-64.78 -24.08,-95.57 -76.14,-109.56 -40.63,-10.93 -106.93,12.43 -157.34,22.58 -274.91,55.38 -214.71,54.21 -130.29,480.04 11.9,60.04 20.82,102.49 33.95,161.36 33.6,150.68 166.45,98.02 335.97,57.21 100.87,-24.28 126.29,-89.91 91.5,-162.4 42.13,-3.51 62.1,-18.52 107.42,-19.54 39.85,171.04 225.66,94.76 380.86,58.6 10.55,45.26 20.34,86.71 30.11,135.9 7.89,39.73 25.3,99.26 28.48,137.53l-928.1 -0.36c-101.23,-0.31 -175.42,39.39 -175.42,137.08l0 3222.67c0,50.52 50.65,126.96 136.73,126.96l4726.57 0c86.02,0 136.73,-76.08 136.73,-126.96l0 -2128.92c0,-104.65 -146.49,-103.37 -146.49,0l0 351.57 -166.02 0 0 -1425.79 166.02 0 0 732.44c0,100.92 146.49,100.92 146.49,0l0 -751.97c0,-164.21 -188.85,-136.72 -283.21,-136.72 -139.97,0 -279.94,0 -419.92,0 -3.35,-40.29 -78.54,-234.64 -96.43,-284.44 -78.13,-217.42 -86.43,-194.07 -372.33,-194.07 -151.2,0 -168.88,171.06 -235.78,350.15 -61.34,164.17 10.48,128.36 -301.32,128.36 0,-207.79 26.9,-359.57 -109.76,-495.71 -262.14,-261.15 -661.73,-65.05 -661.73,280.87l0 214.84 -859.39 0c-1.03,-46.2 -77.09,-344.42 -78.12,-390.63l332.04 -68.35c101.16,151.06 105.78,244.14 224.61,244.14 94.69,0 353.8,-123.53 224.91,-371.39l-181.45 -316.62c-49.92,-66.32 -103.39,-112.28 -175.83,-156.2 -192.8,-116.9 -374.11,-93.66 -580.53,-44.47 -71.74,17.1 -175.78,13.66 -175.78,97.66z"/>
 </g>
</svg>
