<?xml version="1.0" encoding="UTF-8"?>
<!DOCTYPE svg PUBLIC "-//W3C//DTD SVG 1.1//EN" "http://www.w3.org/Graphics/SVG/1.1/DTD/svg11.dtd">
<!-- Creator: CorelDRAW 2021.5 -->
<svg xmlns="http://www.w3.org/2000/svg" xml:space="preserve" width="60mm" height="60mm" version="1.1" style="shape-rendering:geometricPrecision; text-rendering:geometricPrecision; image-rendering:optimizeQuality; fill-rule:evenodd; clip-rule:evenodd"
viewBox="0 0 6000 6000"
 xmlns:xlink="http://www.w3.org/1999/xlink"
 xmlns:xodm="http://www.corel.com/coreldraw/odm/2003">
 <defs>
  <style type="text/css">
   <![CDATA[
    .fil0 {fill:#00A2E9}
   ]]>
  </style>
 </defs>
 <g id="Layer_x0020_1">
  <metadata id="CorelCorpID_0Corel-Layer"/>
  <g id="_2481963030464">
   <path class="fil0" d="M1168.23 1861.41c-22.57,-14.25 -101.58,-90.22 -121.72,-116.48 -54.81,-71.45 4.54,-115.68 47.7,-158.41l502.11 -502.11c40.98,-41.19 85.7,-105.59 157.51,-57.6 25.36,16.95 108.8,104.37 125.28,128.97l-710.88 705.63zm1123.14 -1117.9l118.62 124.54c56.27,-36.92 180.75,-201.32 235.99,-213.88 78.75,-17.91 147.95,128.13 247.92,195.07l-2026.96 2032.23c-31.76,-46.15 -72.55,-77.85 -111,-116.27 -143.13,-143.1 -126.26,-111.57 126.85,-364.71 106.91,-106.91 1319.41,-1306.77 1355.72,-1360.99l-124.31 -129.39 -116.28 121.35c-31.74,-46.15 -72.69,-77.46 -110.77,-116.27 -75.71,-77.1 -106.24,-76.53 -208.89,-76.53 -106.68,0 -186.88,107.58 -245.78,166.48l-412.26 412.27c-119.8,119.8 -166.48,133.17 -166.48,298.61 0,97.34 118.13,215.99 190.26,264.28 -30.83,46.07 -101.95,107.25 -145.36,150.63 -127.95,127.96 -404.3,358.81 -404.3,494.18 0,176.65 103.66,235.54 251.05,383.21 160,160.28 155.99,92.42 507.38,-258.98 34.64,-34.64 82.37,-101.07 129.5,-113.65 0,77.86 12.84,124.71 20.26,191.14 7.93,70.83 15.49,123.1 25.22,196.81 15.99,121.41 35.96,254.38 50.55,382.84 28.99,255.26 72.46,522.05 102.93,774.46 31.31,259.4 62.62,508.46 100.25,766.53 17.4,119.24 28.18,259.74 50.66,382.76 19.21,105.22 109.84,212.44 231.53,212.44l1945.02 0c101.94,0 182.23,-79.13 215.06,-154.92 26.82,-62.01 122.25,-861.31 136.9,-973.05l129.75 -980.21c15.35,-111.02 23.87,-235.06 46.83,-333.67 -47.62,-11.12 -121.47,-21.16 -179.69,-21.16l-268.74 2067.44c-13.96,99.43 -6.85,226.43 -111.82,226.43l-1881.6 0c-109.28,0 -100.14,-146.18 -119.46,-292.8l-319.94 -2428.45c-8.83,-63.92 -21.16,-131.03 -25.73,-185.73 235.43,-157.62 -90.97,-137.4 602.56,-137.4l2230.43 0c-13.63,28.41 -52.86,352.83 -52.86,412.26 48.91,11.37 108.88,21.13 169.13,21.13 2.96,-132.29 63.44,-378.18 63.44,-517.96 0,-113.25 -139.57,-84.56 -253.7,-84.56l-2441.85 0c75.2,-112.33 1257.92,-1220.26 1257.92,-1289.66 0,-89.11 -87.08,-145.21 -182.34,-240.47 -68.86,-68.86 -128.88,-150.64 -261.63,-150.64 -105.05,0 -160.14,48.35 -214.1,103.02 -45.25,45.78 -124,113.65 -155.88,161.24z"/>
   <g>
    <path class="fil0" d="M1168.23 1861.41c-22.57,-14.25 -101.58,-90.22 -121.72,-116.48 -54.81,-71.45 4.54,-115.68 47.7,-158.41l502.11 -502.11c40.98,-41.19 85.7,-105.59 157.51,-57.6 25.36,16.95 108.8,104.37 125.28,128.97l-710.88 705.63zm1123.14 -1117.9l118.62 124.54c56.27,-36.92 180.75,-201.32 235.99,-213.88 78.75,-17.91 147.95,128.13 247.92,195.07l-2026.96 2032.23c-31.76,-46.15 -72.55,-77.85 -111,-116.27 -143.13,-143.1 -126.26,-111.57 126.85,-364.71 106.91,-106.91 1319.41,-1306.77 1355.72,-1360.99l-124.31 -129.39 -116.28 121.35c-31.74,-46.15 -72.69,-77.46 -110.77,-116.27 -75.71,-77.1 -106.24,-76.53 -208.89,-76.53 -106.68,0 -186.88,107.58 -245.78,166.48l-412.26 412.27c-119.8,119.8 -166.48,133.17 -166.48,298.61 0,97.34 118.13,215.99 190.26,264.28 -30.83,46.07 -101.95,107.25 -145.36,150.63 -127.95,127.96 -404.3,358.81 -404.3,494.18 0,176.65 103.66,235.54 251.05,383.21 160,160.28 155.99,92.42 507.38,-258.98 34.64,-34.64 82.37,-101.07 129.5,-113.65 0,77.86 12.84,124.71 20.26,191.14 7.93,70.83 15.49,123.1 25.22,196.81 15.99,121.41 35.96,254.38 50.55,382.84 28.99,255.26 72.46,522.05 102.93,774.46 31.31,259.4 62.62,508.46 100.25,766.53 17.4,119.24 28.18,259.74 50.66,382.76 19.21,105.22 109.84,212.44 231.53,212.44l1945.02 0c101.94,0 182.23,-79.13 215.06,-154.92 26.82,-62.01 122.25,-861.31 136.9,-973.05l129.75 -980.21c15.35,-111.02 23.87,-235.06 46.83,-333.67 -47.62,-11.12 -121.47,-21.16 -179.69,-21.16l-268.74 2067.44c-13.96,99.43 -6.85,226.43 -111.82,226.43l-1881.6 0c-109.28,0 -100.14,-146.18 -119.46,-292.8l-319.94 -2428.45c-8.83,-63.92 -21.16,-131.03 -25.73,-185.73 235.43,-157.62 -90.97,-137.4 602.56,-137.4l2230.43 0c-13.63,28.41 -52.86,352.83 -52.86,412.26 48.91,11.37 108.88,21.13 169.13,21.13 2.96,-132.29 63.44,-378.18 63.44,-517.96 0,-113.25 -139.57,-84.56 -253.7,-84.56l-2441.85 0c75.2,-112.33 1257.92,-1220.26 1257.92,-1289.66 0,-89.11 -87.08,-145.21 -182.34,-240.47 -68.86,-68.86 -128.88,-150.64 -261.63,-150.64 -105.05,0 -160.14,48.35 -214.1,103.02 -45.25,45.78 -124,113.65 -155.88,161.24z"/>
    <path class="fil0" d="M2175.09 4771l0 -1839.32c0,-122.99 169.11,-122.99 169.11,0l0 1839.32c0,122.99 -169.11,122.99 -169.11,0zm-169.13 -1871.02l0 1902.73c0,129.39 111.11,232.58 274.83,232.58 116.31,0 232.55,-116.28 232.55,-232.58l0 -1902.73c0,-129.42 -111.11,-232.58 -274.83,-232.58 -116.31,0 -232.55,116.27 -232.55,232.58z"/>
    <path class="fil0" d="M2851.62 4771l0 -1839.32c0,-122.99 169.13,-122.99 169.13,0l0 1839.32c0,122.99 -169.13,122.99 -169.13,0zm-169.14 -1871.02l0 1902.73c0,129.39 111.11,232.58 274.83,232.58 116.3,0 232.58,-116.28 232.58,-232.58l0 -1902.73c0,-129.42 -111.11,-232.58 -274.84,-232.58 -116.3,0 -232.57,116.27 -232.57,232.58z"/>
    <path class="fil0" d="M3528.16 4771l0 -1839.32c0,-122.99 169.11,-122.99 169.11,0l0 1839.32c0,122.99 -169.11,122.99 -169.11,0zm-169.14 -1871.02l0 1902.73c0,129.39 111.12,232.58 274.84,232.58 116.3,0 232.55,-116.28 232.55,-232.58l0 -1902.73c0,-129.42 -111.12,-232.58 -274.84,-232.58 -116.3,0 -232.55,116.27 -232.55,232.58z"/>
    <path class="fil0" d="M3950.97 1303.78c73.35,-17.09 216.02,-52.86 295.99,-52.86 21.33,91.57 155.83,239.46 222,338.27 -150.86,0 -310.99,40.91 -454.55,52.84 -9.19,-110.41 -63.44,-178.14 -63.44,-338.25zm-169.13 -74.01c0,242.11 -8.41,156.52 52.86,401.71 57.97,231.87 38.93,200.02 317.12,169.11 69.61,-7.73 132.72,-15.43 206.85,-25.7 177.17,-24.52 353.42,-11.76 353.42,-122.28 0,-69.59 -202.45,-267.11 -295.99,-454.55 -91.45,-183.22 -71.93,-153.68 -404.34,-87.22 -107.98,21.6 -229.92,21.72 -229.92,118.93z"/>
    <path class="fil0" d="M3052.45 1494.05c96.14,46.12 216.82,26.88 250.95,87.33l97.91 240.36c-86.38,0 -218.96,16.9 -285.92,-10.09 -32.13,-12.95 -60.65,-32.7 -99.21,-48.78 -47.95,-19.97 -61.58,-35.14 -111.7,-46.85 13.31,-57.18 114.35,-158.42 147.97,-221.97zm-369.97 243.12c0,76.42 83.61,91.88 188.77,149.51 38.92,21.32 71.11,34.72 112.32,56.81 28.15,15.09 86.74,47.39 121.75,47.39l422.84 0c167.25,0 35.97,-232.47 7.53,-303.52 -119.46,-298.44 -76.86,-268.8 -273.96,-318.02 -259.15,-64.74 -257.4,-94.25 -348.23,28.04 -43.58,58.67 -231.02,283.1 -231.02,339.79z"/>
    <path class="fil0" d="M4690.93 986.64c20.59,30.75 80.4,118.87 105.73,137.43 30.38,-8.12 66.17,-36.47 94.41,-53.57 36.16,-21.89 55.94,-29.08 99.32,-48.66 129.05,-58.22 238.93,-56.33 377.09,-56.33 53.11,0 47.33,9.5 95.12,10.58 1.04,-46.88 21.63,-125.84 31.73,-169.14 -247.13,-57.57 -535.34,4.15 -737.98,139.38 -30.02,20.03 -32.84,31.62 -65.42,40.31z"/>
    <path class="fil0" d="M4289.25 859.78l0 31.74 169.13 0c12.39,-148.74 104.96,-241.35 253.71,-253.71l0 -169.13c-242,0 -422.84,197.09 -422.84,391.1z"/>
    <polygon class="fil0" points="3950.97,637.81 4120.11,637.81 4120.11,468.68 3950.97,468.68 "/>
    <polygon class="fil0" points="5050.33,1483.47 5219.47,1483.47 5219.47,1314.33 5050.33,1314.33 "/>
   </g>
  </g>
 </g>
</svg>
