<?xml version="1.0" encoding="UTF-8"?>
<!DOCTYPE svg PUBLIC "-//W3C//DTD SVG 1.1//EN" "http://www.w3.org/Graphics/SVG/1.1/DTD/svg11.dtd">
<!-- Creator: CorelDRAW 2021.5 -->
<svg xmlns="http://www.w3.org/2000/svg" xml:space="preserve" width="60mm" height="60mm" version="1.1" style="shape-rendering:geometricPrecision; text-rendering:geometricPrecision; image-rendering:optimizeQuality; fill-rule:evenodd; clip-rule:evenodd"
viewBox="0 0 6000 6000"
 xmlns:xlink="http://www.w3.org/1999/xlink"
 xmlns:xodm="http://www.corel.com/coreldraw/odm/2003">
 <defs>
  <style type="text/css">
   <![CDATA[
    .fil0 {fill:#00A2E9}
   ]]>
  </style>
 </defs>
 <g id="Layer_x0020_1">
  <metadata id="CorelCorpID_0Corel-Layer"/>
  <path class="fil0" d="M2953.92 5576.73c360.24,-196.75 620.48,-432.59 841.81,-777.54 386.89,-602.98 572.73,-1295.54 653.3,-2057.64 41.17,68.1 92.39,368.77 107.31,470.77 137.81,941.2 -196.31,1931.89 -1125.61,2272.6 -101.5,37.2 -365.58,107.01 -476.81,91.81zm16.57 365.68c394.75,-0.02 700.34,-87.95 1004.18,-253.83 143.87,-78.54 252.17,-168.36 353.54,-262.05 94.2,-87.06 201.54,-232.42 275.03,-340.39 348.85,-512.57 497.35,-1282 308.45,-1982.92 -165.37,-613.54 -568.5,-1192.85 -870.97,-1590.58 -45.05,-59.24 -84.27,-108.35 -132.34,-170.59 -208.36,-269.72 -852.35,-1042.02 -897.71,-1273.08 -33.63,22.92 -60.07,50.27 -81.68,77.41 -12.47,15.66 -20.76,27.79 -34.13,41.88l-683.73 773.85 -341.04 435.29c-323.2,450.26 -658.88,982.13 -805.7,1664.61 -210.78,979.85 42.04,2156.77 920.39,2627.03 289.65,155.08 607.47,253.37 985.71,253.37z"/>
 </g>
</svg>
